<svg xmlns="http://www.w3.org/2000/svg" viewBox="0 0 500 500"><svg xmlns="http://www.w3.org/2000/svg" fill="#dd4247" viewBox="0 0 500 500"><path d="M0 250C0 25 25 0 250 0s250 25 250 250-25 250-250 250S0 475 0 250"/></svg><path d="M284.27 71.95c70.97 0 128.51 57.53 128.51 128.51s-57.53 128.51-128.51 128.51c-24.31 0-47.04-6.75-66.82-18.07l-92.78 92.78c-12.04 12.04-31.57 12.04-43.62 0-12.04-12.04-12.04-31.57 0-43.62l93.19-93.18c-11.73-19.38-18.48-42.12-18.48-66.42 0-70.97 57.53-128.51 128.51-128.51m0 41.12c-48.26 0-87.38 39.12-87.38 87.38s39.12 87.38 87.38 87.38 87.38-39.12 87.38-87.38-39.12-87.38-87.38-87.38" style="opacity:.15;fill:#fff"/><path d="m164.04 256.32 2.86-53.05h-21.58l1.3-26.26h21.84l2.86-52.01h25.74l-2.86 52.01h17.16l-1.3 26.26h-17.42l-2.34 44.47c4.16-1.82 8.32-3.38 12.22-5.2l9.36 23.66c-7.54 3.38-15.34 6.5-23.14 9.36l-3.9 71.25c-1.04 25.48-14.56 33.28-28.6 33.02-13.52-.26-24.44-9.88-26.26-37.71l19.24-1.56c1.56 10.14 1.56 14.04 5.46 14.04 3.38 0 3.9-2.08 4.42-10.4l3.38-60.33c-7.54 2.08-15.08 4.16-22.88 5.72l-6.24-25.22c10.4-2.34 20.54-4.94 30.69-8.06Zm94.65 76.19c-13.78-13.78-24.44-29.64-30.42-46.81h-13.52l2.08-26h49.93l.78-17.42h-49.67l5.2-102.45c10.4-1.04 22.88-5.72 32.25-10.4l13 21.58c-7.02 3.64-15.08 6.24-22.62 8.58l-.78 17.68h16.9l-1.04 22.36h-16.9l-.78 18.46h25.74l4.94-92.05h24.96l-4.94 92.05h28.6l.78-18.46h-19.76l1.3-22.36h19.76l.78-15.86h-19.5l1.56-24.18h23.66c16.64 0 18.72 11.18 18.2 17.94l-4.68 87.11h-52.01l-.78 17.42h25.22c22.36 0 29.38 13.52 22.1 27.83-8.32 17.16-21.06 33.02-36.93 46.81 15.6 10.14 33.8 17.94 52.53 22.36l-11.44 23.92c-22.36-5.98-44.47-16.38-63.19-29.9-19.76 12.48-42.65 22.62-67.87 29.9l-18.46-23.92c23.92-4.94 46.29-13.26 65.01-24.18Zm22.1-14.82c11.96-9.62 21.58-20.54 28.08-31.98h-51.49c5.2 11.44 13.26 22.36 23.4 31.98Z" style="fill:#fff"/></svg>