<svg xmlns="http://www.w3.org/2000/svg" viewBox="0 0 442.58 497.04"><defs><style>.e{fill:#e72e44}.f{fill:#e73043}.h{isolation:isolate}.h,.i{fill:#fff}.h{font-family:'ChillReunion_Round-GBpc-EUC-H',ChillReunion_Round;font-size:20px}</style></defs><g id="a" data-name="图层 2"><g id="b" data-name="图层 3"><path class="i" d="M441.34 251.63c-.3-2.87-.62-5.74-.75-8.63-1.58-2.79-2.95-5.74-4.22-8.76-3.25-2.93-6.13-6.37-8.84-10.16-6.96-9.75-10.86-21.94-14.08-33.41-.31-1.12-.57-2.25-.78-3.37-.01-.02-.03-.04-.04-.05-3-4.72-4.63-9.81-4.88-15.28-.23-1.01-.39-2.03-.51-3.04-2.94-5.78-4.55-12.25-4.76-18.74-1.6-7.42-3.77-14.73-5.1-22.23-.18-.08-.35-.16-.53-.25-4.05-2.4-7.28-5.62-9.67-9.67-.91-2.15-1.81-4.29-2.72-6.44-.64-2.35-.97-4.78-.96-7.22-3.14-2.41-5.62-5.43-7.47-8.87-3.68-2.36-6.75-5.65-9.13-9.34-.75-1.16-1.36-2.38-1.86-3.63-.63-.52-1.24-1.05-1.84-1.61-5.34-4.93-11.21-9.4-16.59-14.32-3.66-1.73-7.4-3.33-11.13-4.98-6.89-3.05-12.94-6.95-18.73-11.28-.97-.15-1.92-.35-2.84-.61-6.83-1.93-13.44-4.83-19.8-7.95-5.82-.46-11.63-1-17.48-2.01-1.65-.28-3.26-.75-4.82-1.35-2.38 1.42-5.09 2.21-7.84 2.06-1.46-.08-2.89-.12-4.36-.06-.23 0-1.71.15-2.23.18-.57.12-1.94.36-2.15.4-1.15.23-2.29.48-3.43.72-2.77.6-5.52 1.14-8.29 1.62-1.58.74-3.32 1.11-5.18 1.28-.42.03-.84.08-1.25.13-.79.12-1.58.25-2.37.36-1.65.25-3.31.48-4.97.68-.87.2-1.8.31-2.8.31H226.52c-6.49.42-11.34-5.66-11.61-11.61-.03-.76.02-1.48.14-2.19-.61-2.05-.7-4.1-.24-6.15.1-2.12.73-4.09 1.89-5.92 1-1.86 2.37-3.34 4.1-4.47.14-.13.29-.23.44-.35 1.26-1.14 2.7-2 4.32-2.52.94-.49 1.91-.85 2.93-1.08.53-.81 1.14-1.56 1.88-2.25 1.44-1.55 3.15-2.65 5.12-3.29a12.16 12.16 0 0 1 4.37-1.31c-.09-.1-.18-.21-.27-.31-.93-1.07-1.9-2.09-2.89-3.1-1.47.58-2.95 1.06-4.43 1.38-11.66 2.48-23.2 5.38-34.59 8.86-.03 1.9-.53 3.78-1.58 5.44-1.31 2.06-2.87 3.91-4.38 5.82-.12.15-.2.25-.27.33-.04.07-.09.15-.15.24-.16.27-1.03 1.9-.86 1.51-1 2.39-1.66 6.75-2.64 9.88v.03c.15.06.29.13.43.19.03.01.06.03.09.04 11.43 3.25 10.28 22.75-3.41 22.75-.78 0-1.52-.08-2.22-.2-1.19.42-2.43.66-3.74.67l-1.38-.18c-3.03 2.27-5.67 5.22-8.65 7.6-3.97 3.18-8.14 6.07-12.38 8.87-2.66 1.75-5.9 1.99-8.86 1.14-.44.83-.89 1.66-1.35 2.49-3.85 6.94-9.45 12.05-15.93 15.36-.14 2.8-1.28 5.56-3.3 7.74-1.62 1.75-3.46 3.06-5.47 4.06-.24.18-.49.36-.73.55.27 2.35-.17 4.73-1.59 6.7-2.95 4.08-4.31 8.88-6.42 13.39-2.37 5.07-5.54 9.61-8.97 14.02-.43.55-.88 1.09-1.32 1.63 1.35 1.91 2.15 4.21 2.1 6.57-.23 13.61-4.41 27.43-10.25 39.79 1 1.95 1.72 4.07 2.25 6.17.79 3.11.31 6.15-1.17 8.94-.07.14-.16.27-.25.4.82 6.93.76 13.92-1.62 20.59-1.06 2.97-3.03 5.45-5.55 6.95-4.52 13.11-9.18 26.62-7.47 40.66 1.02 8.36 3.84 15.27 8.2 21.39 3.73-.61 8.26-.11 10.83 3.06.3.44.67.8 1.12 1.09 2.06 1.69 3.1 4.14 3.31 6.73.73.04 1.46.17 2.18.4 1.51.36 2.83 1.05 3.95 2.08 1.26.82 2.26 1.9 2.99 3.26 1.19 2.47 2.02 4.8 2.39 7.38 2.02 1.39 4.08 2.72 6.16 3.93l1.44.72c.46.23.89.5 1.29.79 1.72.9 3.46 1.73 5.22 2.45.32.13.64.24.96.37 3.79.53 7.58 1.1 11.36 1.67 6.97 4.26 14.82 6.76 23.35 6.76 3.09 0 6.21-.37 9.29-1.05l2.39.48c12.74 2.66 9.89 24.17-3.09 22.8-15.31-1.61-31.03-2.62-45.78-7.16-.25.03-.49.07-.75.08-7.24.51-14.48.98-21.74 1.01-.81 0-1.57-.08-2.29-.21-1.12.83-2.39 1.44-3.73 1.81-1.03.14-2.06.28-3.09.41-1.6.06-3.09-.27-4.47-1-1.44-.47-2.68-1.27-3.74-2.4-.04-.04-.07-.08-.11-.12-.88.2-1.77.4-2.66.57-2.4.46-4.89.93-7.35.91-1.32-.01-2.57-.14-3.75-.37-.91.44-1.82.87-2.73 1.32-3.12-.25-6.25-.4-9.39-.38-9.26.06-18.48 1.02-27.72.64-2.47-.61-4.89-1.38-7.29-2.37-6.1-2.52-14.3-2.21-21.79-.42 7.22 36.44 13.08 73.25 22.58 109.15 0 .01.01.03.02.04 2.77 7.57 4.84 15.34 6.81 23.15 2.02.34 3.98.88 5.89 1.62 6.75-1.56 14.06-1.74 19.78.41 7.32 2.75 14.8 4.89 22.39 6.58 3.6-1.02 7.31-1.59 10.97-1.6 25.49-.13 50.8 3.04 76.19 4.93 24.73 1.84 49.64-.26 74.31 2.33 2.95-.75 5.97-1.17 8.95-1.25 7.13-5.21 15.54-7.55 24.54-8.17.97-.05 1.94-.14 2.91-.25 7.26-.98 14.52-1.95 21.79-2.91.51-.54 1.03-1.07 1.58-1.58 3.35-3.61 7.27-6.24 11.74-7.95-.42-.92-.35-2.08.22-2.92-.39.24-.86.4-1.43.4-1.58 0-2.45-1.09-2.62-2.3-.09 0-.18.03-.28.03-.15 0-.3-.01-.43-.03-.11.01-.21.03-.32.03-2.89 0-3.41-3.65-1.6-5-1.65-1.57-3.32-3.12-5.12-4.52-.98-.76-.78-2.43 0-3.21.71-.71 1.61-.77 2.42-.45 1.64-11.89.68-24.16-1.72-35.96l-.66.08-35.19 4.41c-3.87.49-7.79 1.09-11.74 1.63-.47-2.53-1.11-5.05-2.03-7.55-1-2.73-2.13-5.33-3.34-7.85 2.68-1.71 5.18-3.67 7.38-5.87 7.8-7.8 13.68-20.61 13.18-31.82 0-.06 0-.12-.01-.18 37.67 2.9 75.38 5.22 113.13 6.91 3.1.14 6.18-.14 9.2-.77-.9-5.76-.6-11.52.95-17.28l1.2-2.85c-7.16-13.02-8.49-27.98-.79-42.56 2.79-5.29 7.35-10.23 12.5-14.19 1.32-1.86 2.75-3.64 4.28-5.3 4.18-4.55 10.22-7.98 16.56-9.99.79-.88 1.61-1.7 2.48-2.42 1.82-1.51 3.58-3.08 5.28-4.72-.12-.88-.24-1.76-.35-2.63.93-8.35 2.65-16.4 4.11-24.55h.04z"/><path class="i" d="M399.8 445.21c-.03-4.71-.81-9.33-1.76-13.93-.83-4.01-1.38-7.95-1.62-12.04-.08-1.35-.14-2.72-.21-4.1-6.35-3.52-13.46-5.74-20.36-4.87l-59.6 7.48c1.57 6.72 1.74 13.85.93 20.68-.78 6.53-2.28 13.57-6.16 19.03-.14.2-.3.37-.48.53 4.2 3.83 7.92 8.18 12.89 10.87.44.24.75.62.93 1.07 2.89-.73 5.89-1.05 9-.94 8.26.45 9.01.58 13.06 2.32 4.23-.86 8.57-1.55 13.3-2.08 4.76-.53 16.8-1.2 18.33-2.76 7.03-7.16 15.41-12.75 22.89-19.33-.65-.33-1.14-.97-1.14-1.92z"/><path class="f" d="M398.19 439.8c.35-.84.65-1.69.93-2.54-.3-2-.67-3.99-1.08-5.97-.83-4.01-1.38-7.95-1.62-12.04-.43-7.35-.29-15.34-3.99-21.96-.37-.66-.35-1.35-.1-1.93-.56-1.23-1.13-2.46-1.71-3.68-7.4-15.78-18.97-32.23-35.13-39.94-12.58-6.01-24.79-2.92-36.53 3.43-8.18 4.43-16.4 8.71-24.91 12.5-.82.37-1.65.73-2.48 1.09-.52.22-.91.4-1.19.52-.31.12-.75.3-1.4.55-2.23.9-4.47 1.78-6.72 2.63-5.06 1.91-10.17 3.69-15.33 5.32-1.96.62-3.92 1.21-5.89 1.79.07 1.12-.45 2.21-1.86 2.82-1.49.9-3.05 1.61-4.67 2.13-.81.46-1.65.86-2.52 1.18-2.04.91-4.24 1.42-6.47 1.42-1.3 0-2.54-.16-3.74-.44l-.2-.03c-.46-.09-.9-.19-1.34-.32-.11-.03-.21-.05-.32-.08-.26-.08-.52-.17-.77-.26-.09-.03-.17-.07-.26-.1a15.8 15.8 0 0 1-2.91-1.45c-.57-.22-1.05-.58-1.44-1.03-.15-.12-.3-.23-.45-.36-.39-.03-.78-.05-1.18-.05-.35 0-.7.03-1.05.06-2.52-2-5.38-3.39-8.45-3.99-.67-1.93-2.32-3.47-4.98-3.47-3.11 0-4.85 2.12-5.23 4.5-.41.16-.82.33-1.24.53.11.24.22.48.31.73.35.11.66.33.92.65.13.89.44 1.74.94 2.47 1.02 3.16 1.97 6.35 2.8 9.57-.73 1.87-1.11 3.87-1.02 5.96.19 4.21 1.77 8.11 4.34 11.11.26 2.1.45 4.22.53 6.33.4 1.52.79 3.04 1.14 4.57-.54.94-.99 1.94-1.32 2.97-.08.1-.15.2-.23.3 1.54 4.86 2.99 9.74 4.31 14.67 1.42 4.27 2.82 8.55 4.04 12.88.23.07.46.15.7.21 1.59.5 3.18.69 4.77.59 0-.08 0-.15.01-.22.32-1.88 1.56-3.7 2.61-5.25.98-1.46 2.04-2.88 3.15-4.26 1.56-4.43 6.25-8 10.21-10.04 1.15-.85 2.39-1.62 3.67-2.1.03-.44.04-.88.03-1.33.43-.37 1.59-1.43 2.09-1.94.63-.42 1.48-1 1.66-1.11.92-.54 1.87-1.03 2.83-1.5.2-.06.99-.36 1.76-.6 3.04-.96 6.18-1.64 9.33-2.1-.19.06 3.67-.37 3.57-.36 1.57-.15 3.15-.28 4.72-.41 3.36-.29 6.73-.58 10.08-1.01 3.86-.49 7.69-1.04 11.46-1.88.43 1.86.94 3.7 1.53 5.53.24.1.48.23.69.4 1.07.85 2.11 1.74 3.1 2.67-.74-5.57-1.86-11.08-3.24-16.45-.57-2.22 1.99-3.43 3.48-2.49.08-.71.19-1.42.36-2.13.49-2.09 3.06-1.98 4.15-.54 2.18 2.88 3.56 6.37 4.48 9.84 1.89 7.12 2.12 14.77 1.25 22.06-.24 2.04-.57 4.13-1.01 6.21.52 1.13.99 2.29 1.34 3.48.42 1.43.57 2.82.11 4.27-.33 1.03-.8 1.93-1.03 2.92-.04.51-.08 1.02-.13 1.53-.05.49-.22.89-.46 1.2.88 2.56 2.33 4.93 4.14 6.74 4.58 4.58 10.42 5.48 16.54 4.37.07-.01.14-.03.21-.04 4.04 3.09 9.21 4.57 14.18 2.59 2.8-1.11 5.54-2.32 8.26-3.57 3.46.39 7.1-.25 10.6-2 6.65-3.32 13.3-6.65 19.95-9.97 5.1-2.55 8.64-9.06 8.42-14.68 0-.14-.01-.29-.02-.43-.02-.41-.05-.83-.09-1.24z"/><path d="M124.62 406.67c-4.35.09-8.02 3.22-10.2 6.67-1.22.25-10.45-11.63-17.92-2.96-5.13 5.95-.54 15.02 3.94 19.95 1.95 2.14 12.87 10.54 15.18 10.73 5.23.43 16.76-13.46 17.88-18.68 1.52-7.04-.06-15.89-8.88-15.71zM272.34 212.65c2.52.13 8.58 3.78 9.52.54 1.49-5.08-10.96-6.01-14.27-5.25-1.19.27-3.27 1.18-3.62 2.37h.01c-1.55 5.2 5.84 2.21 8.36 2.34zM278.31 293.52c18.71-1.19 15.1-44.37-2.7-42.68-20.01 1.9-15.87 43.86 2.7 42.68zM318.41 404.44c-2.01.54-4.48 1.34-6.84 2.26 1.31 1.78 2.33 3.77 3.13 5.85 4.83-1.83 9.87-2.89 14.93-3.9 3.42-.68 12.44-.67 14.27-2.72l.48-2.57c-2.29-4.44-21.3-.16-25.97 1.09zM238.9 306.05c-3.19-3.98-5.01.88-7.72 2.24-6.25 3.15-8.73-1.23-14.26-2.76-1.83 11.52 19.84 11.5 21.98.52zM170.26 255.97c-10.22 9.89-4.91 41.62 12.71 36.15 7.1-2.21 8.49-14.83 7.92-21.01-.89-9.71-10.42-25.03-20.64-15.14z"/></g></g><g id="c" data-name="图层 2"><path d="M396.11 442.88c.73-1.55 1.91-2.68 3.31-3.43-.32-2.74-.82-5.46-1.38-8.17-.12-.57-.22-1.15-.33-1.72.15 5.87-.77 11.4-3.08 16.27.51-.98 1-1.96 1.47-2.96zM322.07 453.83s.01 0 .02.01c-.05-6.92-1.54-13.32-4.58-19.26-.08 1.29-.19 2.57-.34 3.84-.37 3.07-.91 6.25-1.76 9.33.19 1.02.34 2.04.43 3.02.06.68.11 1.33.15 1.96 2.15-.18 4.04.01 6.08 1.09zM338.96 468.64c.04.18.09.35.12.53 1.5-.13 3-.32 4.49-.52-1.55.02-3.1.02-4.61 0zM387.48 455.27c.57-.23 1.14-.46 1.7-.68.33-.48 1.29-1.79 1.41-1.97.7-1.03 1.37-2.08 2.02-3.14.07-.12.14-.25.21-.37-.6.93-1.25 1.83-1.98 2.69a35.542 35.542 0 0 1-3.36 3.47z"/><path d="M439.82 239.11c-5.31-16.64-18.97-28.45-24.48-44.43-5-14.52-5.63-31.61-10.04-46.87-19.75-68.29-87.04-117.14-158.79-109.67-2.5.26-10.82 1.49-12.58 2.4-3.13 1.62-2.23 5.65.57 6.21 2.19.44 14.13-2.49 17.89-2.74 67.57-4.42 129.8 43.04 147.33 107.37 4 14.68 4.82 31.14 9.62 45.3 5.92 17.46 21.25 30.45 25.75 49.15 3.7 15.36-.2 37.03-17.29 41.72 1.66-7.5 2.6-14.57 1.87-22.32-.42-4.45-3.36-21.37-9.49-13.13 10.45 27.23-4.74 64.58-36.36 66.4 3.12-2.71 10.45-16.02 1.6-14.03-.57.13-4.73 8.17-6.18 9.96-6.03 7.41-14.91 11.93-24.4 13.05-1.28-1.18 8.5-8.41 4.05-11.54-3.99-2.8-9.04 7.01-12.56 9.54-5.3 3.82-11.46 4.78-17.9 3.91-1.65-.23-8.67-1.78-6.6-4.42 2.07-2.64 12.38-8.73 16.02-11.95 1.9-1.69 7.34-8.7 7.97-9.01 5.08-2.49 16.57 1.37 26.32-3.66 28.87-14.91 26.11-62.96-11.32-58.71.16-3.08.53-6.44-3.49-6.05-3.26.32-3.17 9.43-4.2 12.84-1.22 4.06-5.56 12.53-8.47 15.5-.89.91-.89 2.16-2.82 1.66 4.69-19.17-1.39-37.55-11.58-53.81-1.8-2.87-9.4-17.13-12.97-12.11-2.85 4.01 10.14 16.94 10.55 22.01-18.19-9.02-32.82-26.95-41.14-45.24-1.51-3.31-4.91-15.22-6.3-16.66-.88-.92-1.76-1.17-3.01-1.05l-2.51 1.57.02.02v16.97c0 2.04-2.47 11.13-3.28 13.69-2.44 7.74-6.7 16.93-14.36 20.54-9.13-3.01-17.53-9.13-21.53-18.06-1.4-3.13-2.9-12.22-4.78-13.2-6.64-3.46-3.35 10-2.21 13.19 2.86 8.02 9.69 15.78 17.16 19.79 3.38 1.81 8.89 5.33 11.52 1.48 1.2 4.76 7.82-.08 10.13-2.35 7.68-7.54 10.88-20.8 12.37-31.08.2-1.37.4-3.02 1.96-1.5 6.12 15.28 17.79 30.61 31.08 40.34 3.68 2.69 18.97 10.02 19.82 11.15 5.55 7.33 4.66 28.5 2.39 37.14-.97 3.68-4.81 6.5-1.3 9.74 5.56 3.44 17.91-12.37 20.41-16.61 3.76-6.38 3.34-13.29 12.1-13.92 23.07-1.66 24.34 34.39 4.8 45.77-10.56 6.15-13.76 2.93-23.83 3.07-5.85.08-7.67 6.03-11.44 9.61-33.96 32.25-91.91 38.33-135.97 27.93-15.07-3.56-39.92-12.56-45.44-28.48-4.22-12.13 1.38-20.04.35-31.3-.53-5.82-10.15-37.97-8.86-39.54 23.05 17.93 18.44-19.55 38.88-14.05 3.04-5.88-3.59-6.18-7.91-5.93 3.03-5.85-1.09-10.56-4.84-14.6l6.34-12.33c3.01 14.04 12.1 27.12 26.03 31.94l2.37-1.62c1.46-4.62-6.78-7.1-9.93-9.85-5.97-5.2-13.98-20.2-13.98-27.96v-17.47l-5.11.58c.19 5.77-6.66 29.24-10.86 31.94-4.49 2.89-22.87-22.89-33.46-10.52-2.67 3.12-14.38 24.13-14.5 27.51-.31 8.9 15.53 13.52 20.79 19.03-.78 14.99 8.69 31.61 9.18 45.81.44 12.71-6.63 17.83.48 33.38 4.64 10.16 15.9 15.77 24.48 21.95-10.31 1.03-19.25-2.95-25.22-11.24-2.1-2.91-6.43-14.29-8.3-14.69-4.85-1.04-2.07 10.12-.47 11.95-16.98-4.42-26.07-27.26-25.02-43.45.24-3.71 3.68-11.22 0-12.99-4.39-2.12-5.7 7.2-5.96 10.04-.8 8.59.26 17.31 2.98 25.44-35.43-20.2-3.7-58.4-1.12-86.47 1.48-16.18-.55-30.46 2.59-47.32 8.02-43.13 43.02-91.81 85.53-106.23 2.99-1.01 16.54-3.42 17.06-4.12.49-.67 1.19-3.46.75-4.24-27.05-15.7-7.91-44.54 18.13-43.07-8.69 8.37-13.73 17.61-11.75 30.19.59 3.75 5.03 15.28 10.13 13.63 4.85-1.57-1.66-8.17-2.56-10.21-3.89-8.85-.95-20.78 6.69-26.64 3.15-2.41 10.34-4.01 11.61-5.43 4.2-4.7-7.78-7.12-10.74-7.43-24.75-2.6-52.06 18.21-36.8 43.74 1.2 2.01 4.21 2.85 3.44 6.04-53.19 12.47-96 73.19-99.94 126.29-.72 9.72.7 20.26.03 29.97-1.85 26.96-23.68 50.86-13.51 78.29 2.37 6.39 8.99 14.72 15.15 17.81 2.75 1.39 7.12 1.81 8.87 3.12 1.55 1.16 5.49 8.7 7.9 11.08 7.79 7.68 13.93 6.58 21.46 10.51 1.85.97 3.98 4.06 6.34 5.65 6.98 4.69 13.63 6.73 22.22 5.76 3.39-.38 6.86-2.85 8.97-2.89 2.91-.06 7.14 3.24 10.51 2.9-3.25 3.86-5.91 7.65-6 12.97l-163.44-8.01C5.32 344.8-.87 351.17.1 359.81c11.49 36.5 17.71 77.15 29.6 113.21 2.41 7.31 7.06 11.99 14.9 13.06 24.41 3.32 56.02 4.08 80.96 5.63 40.16 2.49 90.87 9.42 129.32 1.98 15.36-2.98 41.7-8.05 55.74-13.21 4.79-1.76 6.04-3.06 7.29-8.24.03 0 .07.01.1.02a7.28 7.28 0 0 1-.5-1.69c-.45.41-.95.76-1.5 1.06-.82.38-1.64.76-2.46 1.15-.84.48-1.71.81-2.62 1.02-.02.13-.03.26-.06.41l-70.96 15.98c1.42-5.01.26-9.59-1.04-14.25a5.94 5.94 0 0 0-.13-.39s0-.02.01-.03c-.44-1.56-.88-3.14-1.23-4.74-.54-1.19-1.08-2.36-1.49-3.51v-.08c.03-.48-.15-.95-.45-1.34-.58-1.93-1-3.91-1.65-5.82-.04-.11-.09-.21-.14-.31-.84-3.25-1.73-6.49-2.6-9.74.17-.46.18-.91.11-1.43.01.1.03.19.04.29-.3-2.3-.3-4.61 0-6.91-.01.09-.02.19-.04.28.02-.11.02-.22.03-.32l-.38-1.55s-.06-.09-.1-.14c.02-.02.03-.05.05-.07l-1.85-7.64c4.39-1.53 6.68-7.27 4.61-11.41-1.05-2.09-3.29-2.83-3.76-5.26-1.67-8.69 1.2-22.17-.01-31.42l6.3.09c8.31-5.24-19.17-11.54-21.3-13.58-1.56-1.5-2.58-7.69-4.36-10.62-5.69-9.39-16.89-8.36-26.63-8.84.7-16.98 22.35-6.34 32.83-6.82 6.07 13.55 18.73 24.21 29.65 33.81 1.82.01 12.12-14.01 14.46-16.54 11.51-12.45 26.17-25.5 41.93-31.94 10.24 4.58 16.77 7.19 28.11 5.07 1.97-.36 3.99-2.08 5.58-2.24 8.32-.81 12.25 2.17 22.05-2.1 3.24-1.41 7.26-5.35 10.01-5.97 5.98-1.33 13.76.82 20.23-2.17h.02c3.95 8.32-2.51 11.84-5 18.38 2.49 4.52 6.96 7.08 8.84 12.24 3.28 9.03 1.24 19.92-6.29 26.22-3.89-5.39-7.72-10.87-11.98-15.97-2.9-3.46-8.14-7.04-10.55-10.43-1.09-1.55-.73-3.75-1.94-5.05-7.99-8.6-43.03 4.13-52.98 8.02-13.19 5.16-28.92 12.09-41.67 18.28-2.65 1.29-11.37 4.72-11.35 7.66l2.67 3.34 6.34-2.84c.01 13 .68 26.16 3.01 38.92-9.4.98-18.68 5.18-25.51 11.75 1.28 1.65 2.05 3.66 1.95 5.72l-.08 1.58c10.98-13.03 33.53-17.9 45.63-4.55 2.26 2.48 5.27 8.19 6.96 13.92.52.18 1.05.36 1.57.56 2.09.8 3.87 2.11 5.12 3.76.14-.02.28-.03.43-.05-.78-11.77-7.03-21.89-17.08-29.66 8.09-3.11 14.99.02 20.05 5.65-.38-3.21-.89-6.4-1.5-9.56-.23-.1-.39-.18-.42-.22-.38-.65-.33-1.3 0-1.92-.47-2.22-.97-4.42-1.53-6.59-.04-.15-.06-.3-.07-.44-2.48 2.26-4.9 5.17-6.48 5.65-3.62 1.12-7.89.22-12.28 1.7-4.01 1.36-5.48 4.73-10.67 2.65l-3.07-35.35 1.5-6.48c21.32-8.15 44.02-22.12 66.42-26.5 9.92-1.94 11.46-2.91 19.5 3.56 14.16 11.4 32.99 38.24 38.1 62.45-.41-7.26-.33-15.12-3.98-21.64-.83-1.48.28-3.1 1.63-3.4-1.34-2.79-2.71-5.54-4.08-8.2 8.55-9.74 13.66-20.95 9.04-33.96-1.13-3.18-6.87-10.05-7.04-10.92-.31-1.63 3.33-6.14 3.77-8.89.62-3.84.37-8.59-1.66-11.93 4.31-4.52 9.79-8.07 13.7-12.99 1.8-2.26 6.61-11.88 7.21-12.27.49-.32 6.57-1.14 9.18-2.31 19.27-8.6 21.3-35.62 15.65-53.31zM223.73 381.56l.16 8.31-1.98 17.47-6-28.94 7.82 3.16zm-26.36-23.06c6.07.91 8.07 5.04 9.7 10.27 11.31 36.3 15.74 78.19 26.87 114.99 1.03 9.02-11.1 6.63-17.52 6.42-28.56-.93-56.4-2.3-84.95-4.06-26.65-1.65-55.52-3.52-81.96-5.93-3.86-.35-9.29-1.08-11.36-4.62L6.68 359.25c-.44-3.6 1.3-7.72 5.05-8.58h.01c4.23-.97 13.95-.36 18.82-.26 48.97 1.02 102.89 3.52 151.92 6.99 4.41.31 10.92.5 14.89 1.1zm48.76 10.83l-14.38-13.44c2.35 1.89-9.95-8.01-7.96-8.35 1.11-.19 1.72-.21 1.72-.21 6.31-.83 17.93-2.47 18.85-2.78l29.35-4.11h.01l-27.59 28.89z"/><path class="e" d="M398.03 431.29c-.83-4.01-1.38-7.95-1.62-12.04-.42-7.12-.31-14.83-3.66-21.32-13.92-1.55-26.9-.02-40.82 2.48-3.04.54-6.09 1.08-9.18 1.11-2.79.03-5.22-.97-7.96-1.46-5.16-.91-10.05-.29-14.83 1.09-.76-.11-1.52-.14-2.28-.07-.81-.22-1.69-.35-2.65-.35-10.72 0-12.05 14.61-3.96 18.21-.01.23-.02.45-.04.68-.17 2.06.61 4.08 1.92 5.72.05.22.11.43.16.65.29 1.24.86 2.31 1.7 3.23a7.24 7.24 0 0 0 2.67 2.45c.05.03.1.05.15.08-.04 2.24-.19 4.48-.45 6.68-.78 6.53-2.28 13.57-6.16 19.03-.14.19-.3.37-.47.52v.02c2.27 2.07 4.4 4.29 6.67 6.33.65.13 1.34.21 2.08.21 1.2 0 2.28-.19 3.25-.52 10.9 5.81 24.95 6.96 36.74 5.43 14.38-1.87 28.12-7.63 35.12-21.04 1.74-3.34 3.39-6.8 4.83-10.34-.32-2.27-.74-4.52-1.2-6.77z"/><path class="e" d="M313.58 404.44c-12.23 0-12.25 19 0 19s12.25-19 0-19z"/><path class="i" d="M309.72 430.05c.34-8.99-6.67-15.78-15.06-16.02-3.09-.09-5.94 1.75-7.68 4.36-.41-.35-.84-.68-1.31-1-7.22-4.86-17.32-5.7-25.44-3.35-8.33 2.41-15.08 8.23-21.51 13.96-2.22 1.98-2.99 5.1-2.59 8.05-.23 1.42-.19 2.9.12 4.31-1.8.75-3.03 2.73-1.61 4.78.42.6.83 1.21 1.25 1.81.91 1.31 2.36 2.01 3.95 1.61 2.97-.75 1.83.06 2.88 2.2.94 1.92 3.1 3.21 4.95 4.04 3.21 1.44 6.77 1.44 10.19 1.97.24 1.08 1 2 2.42 2.26 4.2.75 8.32.98 12.56.26 2.14-.36 4.28-1.48 6.39-1.74 2.33-.3 3.86.69 6.1 1.07 1 .17 1.87-.06 2.57-.51.41.47.87.94 1.43 1.39 5.24 4.2 10.17 1.84 15.96 2.62 3.99.54 7.98-3.4 8.98-7.11 2.34-8.69-.38-17.22-4.53-24.97z"/><path d="M403.95 423.95c-.6-8.84-2.52-15.63-3.65-18.62a56.952 56.952 0 0 0-9.75-16.56c-.22.17-4.92 2.69-5.42 3 15.07 20.44 15.62 46.32 3.2 61.55-18.29 22.44-56.47 11.41-60.85 10.66-2.15-.37-9.75-1.86-10.08-3.65 5.1-16.89 2.63-31.57-8.75-44.92-.73-.85-2.63-1.68-2.7-1.84-1.56-3.42 7.28-5.78 9.54-6.45 5.25-1.54 10.68-2.13 16.1-2.68 3.47-.35 12.45.54 14.47-1.33l.73-2.51c-1.85-4.64-21.18-2.22-25.95-1.43-3.78.63-9.18 1.98-12.67 3.5-3.48 1.52-7.72 6.36-9.95 6.82-3.71.76-7.87-.54-12.39.5-3.66.86-5.49 3.46-9.32 2.24-1.09-.26-2.17-.52-3.27-.75-.24-.01-.48-.02-.72-.02-.16-.02-.32-.06-.47-.11-.26 0-.53 0-.8-.03-.38-.04-.74-.1-1.08-.18-.24-.02-.49-.03-.73-.06-.18.01-.36-.02-.53-.06v.04c-15.35.11-31.2 8.69-37.3 23.11-.41 1.15-.96 2.2-1.59 3.21-.02.05-.06.1-.08.15-.09.29-.18.58-.26.88-.02.08-.05.19-.07.26-.07.3-.13.6-.18.91-.48 2.97-.18 5.99.42 8.92.19.94.39 2.19.87 2.9.51.76 1.39 1.25 2.11 1.78.26.19.53.4.79.61v-.02c1.51 1.25 3.8 1 5.16 1.73 1.36.72 1.36 2.25 1.81 2.58 7.46 5.32 6.47 1.9 11.91 2.98 1.58.31 3.17 3.5 6.56 4.26 8.45 1.9 13.36-4.64 16.34-4.27 1.64.2 4.05 2.12 6.96 2.53 3.84.55 7.59-1.02 10.13-.64 1.9.28 5.99 2.77 8.86 3.36 1.8.37 4.17-.76 5.04-.21 1.14-.31 2.31-.45 3.5-.27.29.04.57.11.86.18.49 0 .98.1 1.43.24.03.01.07.03.1.04.5.09.98.22 1.45.39l.03-.09c36.52 12.47 93.64 8.34 90.19-42.66zm-111.94 32.4c-6.45 3.25-13.65-2.68-17.52-2.44-3.9.24-11.68 9.39-15.25 3.93-3.57-5.46 11.34-12.13 8.65-16.68-2.18-3.69-9.14 3.06-10.85 4.96-3.09 3.43-5.49 11.57-10.46 8.45-8.05-5.08 9.83-18.25 10.03-20.11 1.11-10.35-20.08 8.24-17.46 13.86l-2.99-.74-.66-1.28c-.43-25.49 38.75-39 53.87-18.68 4.12 5.53 10.14 24.96 2.63 28.73zm7.35 2.82c5.69-16.58.46-31.66-11.86-43.26 16.76-4.64 26.37 15.28 26.28 29.13-.07 11.2-2.01 16.94-14.41 14.13z"/><path d="M316.54 469.52c-2.58-1.69-5.53-3.17-8.45-4.14-2.49-.83-5.06-1.47-7.63-2.05-.02 0-.03-.02-.04-.03-.24-.14-.5-.26-.74-.39a1.41 1.41 0 0 0-.43-.33c-2.16-1.05-4.35-2.01-6.57-2.93h-.02c-.16-.07-.32-.14-.48-.2-.19-.08-.45-.09-.71-.06-.03 0-.05-.02-.08-.03-.27-.08-.53-.1-.8-.04-.27.01-.51.09-.74.24l-.4.31c-.25.25-.42.54-.51.88-.02.18-.05.35-.07.53 0 .36.09.7.27 1.01.32.42.4.55.85.84.2.13.45.22.67.3.17.07.35.12.52.18.16.06.33.11.49.17.21.18.44.33.72.41.35.1.69.23 1.03.34.95.48 1.9.96 2.85 1.43.36.02.72.12 1.04.29.2.1.4.19.6.28.79.31 1.6.56 2.42.78.16.04.31.11.44.18 2.01.48 4.01 1.01 5.97 1.64 1.91.61 3.8 1.5 5.59 2.5V471.7c.03.03.07.05.1.08.08.09.15.18.22.28.01.02.03.04.04.07.01.03.02.05.03.08.05.09.1.17.14.27.05.14.05.29.02.43 0 .14-.05.28-.13.4a.77.77 0 0 1-.19.21c-.05.05-.09.11-.14.16.04.06.07.12.12.17.14.22.33.39.56.52.16.07.32.13.48.2.35.1.71.1 1.06 0 .16-.07.32-.13.48-.2.3-.18.54-.42.72-.72.03-.04.06-.09.08-.14.05-.09.08-.19.12-.28 1.41-.41 2.17-2.65.54-3.72z"/><path class="i" d="M312.86 472.75c-.02-.22-.08-.43-.2-.62-.13-.19-.28-.34-.48-.46-.22-.14-.56-.06-.68.18-.13.24-.06.54.18.68 0 0 .02.01.02.02.02.01.03.03.05.05h-.02c-.09 0-.17.02-.25.07-.22.09-.44.19-.67.28-.1.04-.2.07-.29.13-.08.05-.13.12-.19.19-.1 0-.19.01-.29 0-.02 0-.11-.01-.12-.01-.03 0-.06 0-.09-.01a4.18 4.18 0 0 1-.34-.08c-.25-.07-.56.09-.62.35-.06.27.08.54.35.62.64.19 1.32.18 1.96.03h.04c.33-.08.65-.19.95-.35.03-.02.04-.05.06-.07.18-.08.33-.19.45-.36 0 0 .02-.01.02-.02.09-.07.15-.24.15-.35 0-.03-.01-.05-.02-.08 0-.05.02-.11.02-.16zM308.78 471.88c-.64 0-.64 1 0 1s.64-1 0-1z"/><path class="e" d="M386.8 394.21c-.28-1.09-.73-2.13-1.34-3.08-.14-.22-.45-.33-.68-.18-.22.14-.33.45-.18.68.58.92.96 1.8 1.23 2.84.07.25.36.43.62.35a.51.51 0 0 0 .35-.62zM392.03 407.64c-.64 0-.64 1 0 1s.64-1 0-1zM396.94 421.97c-.09-.66-.17-1.31-.26-1.97-.05-.35-.09-.7-.16-1.04.03-.09.05-.19.02-.3-.39-1.82-1.29-3.51-2.57-4.86-.44-.47-1.15.24-.71.71a9.027 9.027 0 0 1 2.07 3.58.36.36 0 0 0-.02.32c.23.55.3 1.14.38 1.73.09.66.17 1.31.26 1.97.17 1.31.26 2.6.15 3.91-.05.64.95.64 1 0 .11-1.37.01-2.7-.17-4.06z"/><g id="d" data-name="RT"><path class="f" d="M173.28 205.72c-2.18-3.87-15.35-11.81-19.87-14.73-10.5-6.77-24.26-19.62-34.35-6.8-3.53 4.49-12.93 22.14-14.78 27.55-1.93 5.67-2.21 9.1 2.01 13.58 3.26 3.46 32.06 18.15 41.03 21.43.67.24 1.37.36 2.08.31.39-.02.79-.07 1.19-.16.19-.04 1.22-.56 1.53-.78.88-.62 25.68-32.37 21.16-40.39z"/><g style="isolation:isolate"><text class="h" transform="rotate(29.44 -369.85 360.761)"><tspan x="0" y="0">R</tspan></text><text class="h" transform="rotate(29.44 -375.638 382.79)"><tspan x="0" y="0">T</tspan></text></g></g></g></svg>