<svg xmlns="http://www.w3.org/2000/svg" viewBox="0 0 442.6 497" xmlns:v="https://vecta.io/nano"><path d="M239.9 5l-.3-.3c0 .1.1.2.2.3h.1zM94.4 188.2c.2.3.3.7.5 1v-1.9c-.1.3-.3.6-.4.9zM236.7 1.6c-.4.1-.7.3-1.1.4 1.2.5 2.3 1 3.1 1.6-.6-.7-1.3-1.4-1.9-2zM83.1 489.5h.2-.6.4zM184 350.3v1.1c9.7.5 20.9-.5 26.6 8.8 1.8 2.9 2.8 9.1 4.4 10.6 2.1 2 29.6 8.3 21.3 13.6h-.2c.9.6 1.9 1 2.8 1.4h.3c.2 0 .5.2.8.3h.3c.4.1.9.2 1.3.3h.2c1.2.3 2.4.5 3.7.5 2.2 0 4.4-.5 6.5-1.4.9-.3 1.7-.7 2.5-1.2.9-.3 1.8-.6 2.6-1l-1.3-1.6c0-2.9 8.7-6.4 11.3-7.7 12.8-6.2 28.5-13.1 41.7-18.3 10-3.9 45-16.6 53-8 1.2 1.3.8 3.5 1.9 5 2.4 3.4 7.6 7 10.5 10.4 4.1 4.9 7.9 10.3 11.6 15.5h.9c7.1-6.4 9-16.9 5.8-25.8-1.9-5.2-6.4-7.7-8.8-12.2 2.5-6.5 9-10.1 5-18.4h0c-6.5 3-14.2.8-20.2 2.2-2.8.6-6.8 4.6-10 6-9.8 4.3-13.7 1.3-22 2.1-1.6.2-3.6 1.9-5.6 2.2-11.3 2.1-17.9-.5-28.1-5.1-15.8 6.4-30.4 19.5-41.9 31.9-2.3 2.5-12.6 16.5-14.5 16.5-10.9-9.6-23.6-20.3-29.6-33.8-9.1.4-26.7-7.6-31.6 1.5-.2 1.5-.6 2.9-1.2 4.2zM38.2 475.6c2.1 3.5 7.5 4.3 11.4 4.6 26.4 2.4 55.3 4.3 82 5.9 28.5 1.8 56.4 3.1 84.9 4.1 6.4.2 18.6 2.6 17.5-6.4-5.6-18.5-9.5-38.3-13.4-58 0-.1 0-.3-.1-.4-3.9-19.3-7.8-38.6-13.3-56.5-1.6-5.2-3.6-9.4-9.7-10.3-4-.6-10.5-.8-14.9-1.1-41.5-2.9-86.5-5.2-129-6.4-6.3.3-12.5.6-18.8.4l-3.3-.9h-.8c-4.9 0-14.6-.7-18.8.3h0c-2.5.6-4.1 2.6-4.8 4.9l3 15.9 28.2 104.1zm58.3-65.2c7.5-8.7 16.7 3.2 17.9 3 2.2-3.4 5.8-6.6 10.2-6.7 8.8-.2 10.4 8.7 8.9 15.7-1.1 5.2-12.6 19.1-17.9 18.7-2.3-.2-13.2-8.6-15.2-10.7-4.5-4.9-9.1-14-3.9-20zm135.3-54.5l14.4 13.4 27.6-28.9h0l-29.3 4.1c-.9.3-12.5 2-18.9 2.8 0 0-.6 0-1.7.2-2 .3 10.3 10.2 8 8.3zm162.4-35.6c0-.3.2-.5.3-.8l-.5.5s0 .2.2.3zm-83.3 153.9c.7-3.6-2.8-.8-5.3-1-2.9-.3-7.2-2.4-9.1-2.5-2.6-.1-6.1 1.8-10 1.6-2.9-.1-5.5-1.8-7.2-1.9-3 0-7.3 6.9-15.9 5.8-3.5-.4-5.3-3.5-6.9-3.6-5.5-.5-4.2 2.8-12.1-1.8h0c-.5-.3-.6-1.8-2-2.4s-3.7-.1-5.3-1.2c.9 8 5.3 14.9 3 23l71-16zm10-8.6c.1.5.8.9 1.7 1.2-.6-.4-1.1-.8-1.7-1.3v.1zm-58.1 3.2c4.1 5.1 10.9-4.8 14.8-5.4 3.8-.6 11.6 4.6 17.7.7 7.1-4.5-.8-23.2-5.4-28.3-17-18.8-54.7-1.5-51.8 23.8l.8 1.2 3 .5c-3.1-5.3 16.1-25.9 16-15.5 0 1.9-16.5 16.7-8 21 5.2 2.6 6.9-5.7 9.6-9.4 1.5-2.1 7.8-9.5 10.3-6h0c3.1 4.3-11.1 12.3-7 17.4zM316 458c.2-2.1 0-4.5-.2-7.2-1.2-13.8-12.7-32.7-29-26.5 13.4 10.4 20 24.9 16 41.9 9.5 1.2 12.6-1.8 13.2-8.2zm1.9 14.3h.2-.1v.1zM223.3 49.9c-5.1 1.6-9.5-9.9-10.1-13.6-2-12.6 3.1-21.8 11.8-30.2-26-1.5-45.2 27.4-18.1 43.1.4.8-.3 3.6-.8 4.2-.5.7-14.1 3.1-17.1 4.1-42.5 14.4-77.5 63.1-85.5 106.2-3.1 16.9-1.1 31.1-2.6 47.3-2.4 26.6-31.1 62.3-3.9 83.2.8.4 1.5.9 2.2 1.6.9.6 1.8 1.2 2.8 1.7-2.7-8.1-3.8-16.8-3-25.4.3-2.8 1.6-12.2 6-10 3.7 1.8.2 9.3 0 13-1 16.2 8 39 25 43.5-1.6-1.8-4.4-13 .5-12 1.9.4 6.2 11.8 8.3 14.7 6 8.3 14.9 12.3 25.2 11.2-8.6-6.2-19.8-11.8-24.5-22-7.1-15.5 0-20.7-.5-33.4-.4-11.9-7.1-25.4-8.8-38.3-10.6-5.3-21.9-11.5-23.9-13.6-4.2-4.5-3.9-7.9-2-13.6 1.8-5.4 11.2-23.1 14.8-27.5 10.1-12.8 23.9 0 34.4 6.8 1.2.7 2.9 1.8 4.8 3.1 4.2-5.7 9.8-25.4 9.6-30.7l5.1-.6v17.5c0 7.8 8 22.8 14 28 3.1 2.8 11.4 5.2 9.9 9.8l-2.4 1.6c-13.9-4.8-23-17.9-26-31.9l-5 9.7c4.4 3 8.7 6.2 9.8 8.2h0c1.1 1.9.5 5.3-1.1 9.2 2.7.5 4.6 2 2.7 5.7-1.9-.5-3.6-.7-5.1-.5-6.1 11.7-17 25.6-17.6 26-.3.2-1.3.7-1.5.8-.4 0-.8.1-1.2.2-.7 0-1.4 0-2.1-.3-2.3-.9-6-2.5-10.2-4.5 2.4 10.3 7.4 27.8 7.7 32 1 11.3-4.6 19.2-.4 31.3 5.5 15.9 30.4 24.9 45.4 28.5 44.1 10.4 102 4.3 136-27.9 3.8-3.6 5.6-9.5 11.4-9.6 10.1-.1 13.3 3.1 23.8-3.1 19.5-11.4 18.3-47.4-4.8-45.8-8.8.6-8.3 7.5-12.1 13.9-2.5 4.2-14.8 20-20.4 16.6-3.5-3.2.3-6.1 1.3-9.7 2.3-8.6 3.2-29.8-2.4-37.1-.9-1.1-16.1-8.5-19.8-11.1-13.3-9.7-25-25.1-31.1-40.3-1.6-1.5-1.8.1-2 1.5-1.5 10.3-4.7 23.5-12.4 31.1-2.3 2.3-8.9 7.1-10.1 2.3-2.6 3.9-8.1.3-11.5-1.5-7.5-4-14.3-11.8-17.2-19.8-1.1-3.2-4.4-16.7 2.2-13.2 1.9 1 3.4 10.1 4.8 13.2 4 8.9 12.4 15 21.5 18.1 7.7-3.6 11.9-12.8 14.4-20.5.8-2.6 3.3-11.6 3.3-13.7v-17h0l2.5-1.6c1.2-.1 2.1.1 3 1 1.4 1.4 4.8 13.4 6.3 16.7 8.3 18.3 23 36.2 41.1 45.2-.4-5.1-13.4-18-10.5-22 3.6-5 11.2 9.2 13 12.1 10.2 16.3 16.3 34.6 11.6 53.8 1.9.5 1.9-.8 2.8-1.7 2.9-3 7.2-11.4 8.5-15.5 1-3.4.9-12.5 4.2-12.8 4-.4 3.6 3 3.5 6 37.4-4.2 40.2 43.8 11.3 58.7-9.8 5-21.2 1.2-26.3 3.7-.6.3-6.1 7.3-8 9-3.6 3.2-14 9.3-16 12-2.1 2.6 5 4.2 6.6 4.4 6.4.9 12.6 0 17.9-3.9 3.5-2.5 8.6-12.3 12.6-9.5 4.5 3.1-5.3 10.4-4 11.5 9.5-1.1 18.4-5.6 24.4-13 1.5-1.8 5.6-9.8 6.2-10 8.9-2 1.5 11.3-1.6 14 31.6-1.8 46.8-39.2 36.4-66.4 6.1-8.2 9.1 8.7 9.5 13.1.7 7.8-.2 14.8-1.9 22.3 17.1-4.7 21-26.4 17.3-41.7-4.5-18.7-19.8-31.7-25.8-49.1-4.8-14.2-5.6-30.6-9.6-45.3C382.3 87.1 320 39.6 252.5 44c-3.8.2-15.7 3.2-17.9 2.7-.9-.2-1.5-.7-2-1.3-.9.1-1.9.3-2.8.4a12.65 12.65 0 0 1-2.8.3h-.3-.2-1.9c.7 1.7.7 3.2-1.4 3.9zM183 292.1h0c-17.6 5.5-22.9-26.2-12.7-36.1s19.8 5.4 20.6 15.1c.6 6.2-.8 18.8-7.9 21zm81-81.8c.4-1.2 2.4-2.1 3.6-2.4 3.3-.8 15.8.2 14.3 5.2-.9 3.2-7-.4-9.5-.5s-9.9 2.9-8.4-2.3h0zm11.6 40.5c17.8-1.7 21.4 41.5 2.7 42.7-18.6 1.2-22.7-40.8-2.7-42.7zm-58.7 54.7c5.5 1.5 8 5.9 14.3 2.8 2.7-1.4 4.5-6.2 7.7-2.2-2.1 11-23.8 11-22-.5z" fill="#fff"/><path d="M252 385.7c-2 .9-4.2 1.4-6.5 1.4s-2.5-.2-3.7-.4h-.2l-1.3-.3h-.3c-.3 0-.5-.2-.8-.3h-.3c-1-.4-1.9-.8-2.8-1.4H230c1.2 9.2-1.7 22.6 0 31.3.5 2.4 2.7 3.2 3.8 5.3 2.1 4.1-.2 9.9-4.6 11.4l3.8 15.8c4.5-15.1 19.6-25.3 35-27-2.3-12.8-3-25.9-3-38.9l-6.3 2.8-1.4-1.8c-.9.4-1.7.8-2.6 1-.8.5-1.6.9-2.5 1.2zm-28.3-4.1l-7.8-3.2 6 28.9 2-17.4-.2-8.3zm134.6-25.1c-8-6.5-9.6-5.5-19.5-3.6-22.4 4.4-45.1 18.4-66.4 26.5l-1.5 6.5 3.1 35.3c5.2 2.1 6.7-1.3 10.7-2.6 4.4-1.5 8.7-.6 12.3-1.7 2.2-.7 5.9-5.9 9.2-7.8s8.6-3.7 12.3-4.7c4.7-1.2 23.7-5.5 26-1.1l-.5 2.6c-1.8 2-10.9 2-14.3 2.7-5.3 1.1-10.7 2.2-15.8 4.2-2.2.9-10.8 4.1-8.9 7.3h0c0 .1 2.1.8 2.9 1.6 12.6 12.2 16.5 26.5 13.1 43.7.5.5 1.1.9 1.7 1.3 2.5.9 7.1 1.3 8.7 1.5 19.5 1.4 46.1-.5 59.5-16.5 21.1-25.3-11.1-78-32.5-95.3zM316 458.1zm-95.5-32.4v-.5c0 .1 0 .3.1.4z" fill="#e73043"/><path d="M439.8 239.1c-5.3-16.6-19-28.5-24.5-44.4-5-14.5-5.6-31.6-10-46.9-19.8-68.3-87-117.1-158.8-109.7-2.5.3-10.8 1.5-12.6 2.4-2.2 1.1-2.4 3.4-1.4 4.9.4.7 1.1 1.2 2 1.3 2.2.4 14.1-2.5 17.9-2.7 67.6-4.4 129.8 43 147.3 107.4 4 14.7 4.8 31.1 9.6 45.3 5.9 17.5 21.2 30.5 25.8 49.1 3.7 15.4-.2 37-17.3 41.7 1.7-7.5 2.6-14.6 1.9-22.3-.4-4.5-3.4-21.4-9.5-13.1 10.5 27.2-4.7 64.6-36.4 66.4 3.1-2.7 10.5-16 1.6-14-.6.1-4.7 8.2-6.2 10-6 7.4-14.9 11.9-24.4 13-1.3-1.2 8.5-8.4 4-11.5-4-2.8-9 7-12.6 9.5-5.3 3.8-11.5 4.8-17.9 3.9-1.6-.2-8.7-1.8-6.6-4.4s12.4-8.7 16-12c1.9-1.7 7.3-8.7 8-9 5.1-2.5 16.6 1.4 26.3-3.7 28.9-14.9 26.1-63-11.3-58.7.2-3.1.5-6.4-3.5-6-3.3.3-3.2 9.4-4.2 12.8-1.2 4.1-5.6 12.5-8.5 15.5-.9.9-.9 2.2-2.8 1.7 4.7-19.2-1.4-37.6-11.6-53.8-1.8-2.9-9.4-17.1-13-12.1-2.8 4 10.1 16.9 10.5 22-18.2-9-32.8-27-41.1-45.2-1.5-3.3-4.9-15.2-6.3-16.7-.9-.9-1.8-1.2-3-1l-2.5 1.6h0v17c0 2-2.5 11.1-3.3 13.7-2.4 7.7-6.7 16.9-14.4 20.5-9.1-3-17.5-9.1-21.5-18.1-1.4-3.1-2.9-12.2-4.8-13.2-6.6-3.5-3.3 10-2.2 13.2 2.9 8 9.7 15.8 17.2 19.8 3.4 1.8 8.9 5.3 11.5 1.5 1.2 4.8 7.8 0 10.1-2.3 7.7-7.5 10.9-20.8 12.4-31.1.2-1.4.4-3 2-1.5 6.1 15.3 17.8 30.6 31.1 40.3 3.7 2.7 19 10 19.8 11.1 5.5 7.3 4.7 28.5 2.4 37.1-1 3.7-4.8 6.5-1.3 9.7 5.6 3.4 17.9-12.4 20.4-16.6 3.8-6.4 3.3-13.3 12.1-13.9 23.1-1.7 24.3 34.4 4.8 45.8-10.6 6.1-13.8 2.9-23.8 3.1-5.8 0-7.7 6-11.4 9.6-34 32.2-91.9 38.3-136 27.9-15.1-3.6-39.9-12.6-45.4-28.5-4.2-12.1 1.4-20 .4-31.3-.4-4.1-5.4-21.7-7.7-32-2.2-1-4.5-2.2-6.9-3.4 1.7 12.9 8.4 26.4 8.8 38.3.4 12.7-6.6 17.8.5 33.4 4.6 10.2 15.9 15.8 24.5 22-10.3 1-19.2-3-25.2-11.2-2.1-2.9-6.4-14.3-8.3-14.7-4.8-1-2.1 10.1-.5 12-17-4.4-26.1-27.3-25-43.5.2-3.7 3.7-11.2 0-13-4.4-2.1-5.7 7.2-6 10-.8 8.6.3 17.3 3 25.4-1-.6-1.9-1.1-2.8-1.7-.8-.5-1.5-1-2.2-1.6-27.2-20.9 1.4-56.6 3.9-83.2 1.5-16.2-.5-30.5 2.6-47.3 8-43.1 43-91.8 85.5-106.2 3-1 16.5-3.4 17.1-4.1.5-.7 1.2-3.5.8-4.2-27-15.7-7.9-44.5 18.1-43.1-8.7 8.4-13.7 17.6-11.8 30.2.6 3.8 5 15.3 10.1 13.6 2-.7 2.1-2.2 1.4-3.9-1-2.4-3.4-5.1-3.9-6.3-3.9-8.8-1-20.8 6.7-26.6 3.1-2.4 10.3-4 11.6-5.4.9-1 1-1.9.7-2.7 0-.1 0-.2-.2-.3-.2-.4-.5-.7-1-1.1-.8-.6-1.9-1.2-3.1-1.6-2.7-1-5.9-1.6-7.3-1.8-24.8-2.6-52.1 18.2-36.8 43.7 1.2 2 4.2 2.9 3.4 6-53.2 12.5-96 73.2-99.9 126.3-.3 3.6-.2 7.3-.1 11.1v1.9c.2 5.7.5 11.5.1 17-.6 8.3-3.1 16.4-5.9 24.4-2.1 5.8-4.4 11.5-6.2 17.3-3.9 11.9-6.1 23.9-1.4 36.7 2.4 6.4 9 14.7 15.2 17.8 2.8 1.4 7.1 1.8 8.9 3.1 1.5 1.2 5.5 8.7 7.9 11.1 5.1 5 9.5 6.3 14.1 7.7 1.5.5 3 .9 4.6 1.6.9.4 1.8.8 2.8 1.3 1.8 1 4 4.1 6.3 5.7 7 4.7 13.6 6.7 22.2 5.8 3.4-.4 6.9-2.9 9-2.9 2.9 0 7.1 3.2 10.5 2.9-3.2 3.9-5.9 7.7-6 13l-163.4-8C5.3 345-.8 351.4.1 360.1c11.5 36.5 17.7 77.1 29.6 113.2 2.4 7.3 7.1 12 14.9 13.1 11.6 1.6 24.7 2.6 38.1 3.3h.6l42.3 2.2c40.2 2.5 90.9 9.4 129.3 2 15.4-3 41.7-8 55.7-13.2 4.8-1.7 6-3 7.3-8.1v-.1h.1c16.8 4 37.5 4.2 54.3-1.3l2.6-.9c19.4-7.2 33-22.4 28.6-49-2-12.2-7.9-24.4-13.6-35.4 8.6-9.7 13.7-20.9 9-34-1.1-3.2-6.9-10.1-7-10.9-.3-1.6 3.3-6.1 3.8-8.9.6-3.7.4-8.3-1.5-11.6 0 0 0-.2-.2-.3.1-.2.3-.3.5-.5 4.2-4.3 9.5-7.8 13.2-12.5 1.8-2.3 6.6-11.9 7.2-12.3.5-.3 6.6-1.1 9.2-2.3 19.3-8.6 21.3-35.6 15.6-53.3zm-216 108.4c1.1-.2 1.7-.2 1.7-.2 6.3-.8 17.9-2.5 18.9-2.8l29.3-4.1h0l-27.6 28.9-14.4-13.4c2.4 1.9-10-8-8-8.3zm-7-2.9c6.1 13.5 18.7 24.2 29.6 33.8 1.8 0 12.1-14 14.5-16.5 11.5-12.5 26.2-25.5 41.9-31.9 10.2 4.6 16.8 7.2 28.1 5.1 2-.4 4-2.1 5.6-2.2 8.3-.8 12.2 2.2 22-2.1 3.2-1.4 7.3-5.3 10-6 6-1.3 13.8.8 20.2-2.2h0c4 8.3-2.5 11.8-5 18.4 2.5 4.5 7 7.1 8.8 12.2 3.2 8.8 1.3 19.4-5.8 25.8l-.5.5c-.1-.2-.2-.3-.3-.5-3.8-5.2-7.5-10.5-11.6-15.5-2.9-3.5-8.1-7-10.5-10.4-1.1-1.5-.7-3.8-1.9-5-8-8.6-43 4.1-53 8-13.2 5.2-28.9 12.1-41.7 18.3-2.6 1.3-11.4 4.7-11.3 7.7l1.3 1.6 1.4 1.8 6.3-2.8c0 13 .7 26.2 3 38.9-15.4 1.6-30.5 11.8-35 27l-3.8-15.8c4.4-1.5 6.7-7.3 4.6-11.4-1-2.1-3.3-2.8-3.8-5.3-1.7-8.7 1.2-22.2 0-31.4h6.1.2c8.3-5.2-19.2-11.5-21.3-13.6-1.6-1.5-2.6-7.7-4.4-10.6-5.7-9.4-16.9-8.4-26.6-8.8v-1.1c.2-1.7.6-3.1 1.2-4.2 4.9-9.1 22.4-1.1 31.6-1.5zm174 107.2c-13.4 16-40 17.9-59.5 16.5-1.6-.1-6.1-.6-8.7-1.5-.9-.3-1.6-.7-1.7-1.2v-.1c3.4-17.2-.5-31.6-13.1-43.7-.8-.8-2.8-1.4-2.9-1.6h0c-1.9-3.2 6.7-6.5 8.9-7.3 5.1-2 10.4-3.2 15.8-4.2 3.4-.7 12.4-.7 14.3-2.7l.5-2.6c-2.3-4.4-21.3-.2-26 1.1-3.7 1-9 2.9-12.3 4.7s-7.1 7.1-9.2 7.8c-3.6 1.1-7.9.2-12.3 1.7-4 1.4-5.5 4.7-10.7 2.6l-3.1-35.3 1.5-6.5c21.3-8.1 44-22.1 66.4-26.5 9.9-1.9 11.5-2.9 19.5 3.6 21.5 17.3 53.7 70 32.5 95.3zm-168.9-44.5l-6-28.9 7.8 3.2.2 8.3-2 17.5zm47.9 44.1h0c-2.5-3.5-8.8 3.9-10.3 6-2.7 3.7-4.3 12.1-9.6 9.4-8.5-4.3 8-19.1 8-21 0-10.4-19.2 10.1-16 15.5l-3-.5-.8-1.2c-2.9-25.3 34.8-42.6 51.8-23.8 4.6 5.1 12.5 23.9 5.4 28.3-6.1 3.9-13.8-1.3-17.7-.7s-10.7 10.5-14.8 5.4 10.1-13.2 7-17.4zm-32.9 15.8c1.6 1.1 3.9.6 5.3 1.2s1.6 2.1 2 2.4h0c7.9 4.6 6.6 1.3 12.1 1.8 1.6.2 3.5 3.2 6.9 3.6 8.6 1.1 12.9-5.9 15.9-5.8 1.7 0 4.2 1.7 7.2 1.9 3.9.2 7.5-1.8 10-1.6 1.9 0 6.2 2.2 9.1 2.5 2.6.3 6-2.6 5.3 1l-71 16c2.3-8.1-2.1-15-3-23zm66-1c4.1-17-2.6-31.6-16-41.9 16.2-6.2 27.7 12.7 29 26.5.2 2.7.4 5.2.2 7.2-.5 6.3-3.7 9.4-13.2 8.2zM7 355.6c.7-2.3 2.3-4.4 4.8-4.9h0c4.2-1 14-.4 18.8-.3h.8l22.1.6c42.5 1.2 87.5 3.5 129 6.4 4.4.3 10.9.5 14.9 1.1 6.1.9 8.1 5 9.7 10.3 5.6 17.9 9.5 37.1 13.3 56.5v.5c3.9 19.7 7.8 39.5 13.4 58 1 9-11.1 6.6-17.5 6.4-28.6-.9-56.4-2.3-84.9-4.1l-82-5.9c-3.9-.4-9.3-1.1-11.4-4.6L9.8 371.5l-3.3-12.2c-.1-1.2 0-2.5.3-3.6zm161.5-167.8c3 14 12.1 27.1 26 31.9l2.4-1.6c1.5-4.6-6.8-7.1-9.9-9.8-6-5.2-14-20.2-14-28v-17.5l-5.1.6c.2 5.2-5.4 25-9.6 30.7 1.6 1 3.5 2.2 5.2 3.4l5-9.7zm1.8 68.2c-10.2 9.9-4.9 41.6 12.7 36.1h0c7.1-2.2 8.5-14.8 7.9-21-.9-9.7-10.4-25-20.6-15.1zm102-43.4c2.5.1 8.6 3.8 9.5.5 1.5-5.1-11-6-14.3-5.2-1.2.3-3.3 1.2-3.6 2.4h0c-1.5 5.2 5.8 2.2 8.4 2.3zm-97.4 8c1.9-3.7 0-5.2-2.7-5.7l-2.4 5.2c1.5-.2 3.2 0 5.1.5zm-59.3 220.5c5.2.4 16.8-13.5 17.9-18.7 1.5-7 0-15.9-8.9-15.7-4.3 0-8 3.2-10.2 6.7-1.2.3-10.4-11.6-17.9-3-5.1 6-.5 15 3.9 20 2 2.1 12.9 10.5 15.2 10.7zM238.9 306c-3.2-4-5 .9-7.7 2.2-6.2 3.2-8.7-1.2-14.3-2.8-1.8 11.5 19.8 11.5 22 .5zm39.4-12.5c18.7-1.2 15.1-44.4-2.7-42.7-20 1.9-15.9 43.9 2.7 42.7z"/><path d="M149.4 247.1c.4 0 .8 0 1.2-.2.2 0 1.2-.6 1.5-.8.6-.4 11.5-14.2 17.6-26 .9-1.8 1.8-3.6 2.4-5.2 1.6-3.9 2.2-7.3 1.1-9.2h0c-1.2-2.1-5.4-5.3-9.8-8.2l-5.2-3.4c-2-1.2-3.7-2.3-4.8-3.1-10.5-6.8-24.3-19.6-34.4-6.8-3.5 4.5-12.9 22.1-14.8 27.5-1.9 5.7-2.2 9.1 2 13.6 2 2.1 13.3 8.3 23.9 13.6l6.9 3.4c4.2 2 7.9 3.6 10.2 4.5.7.2 1.4.4 2.1.3zm-5.5-9.8h0c-.7-.4-.8-1-.4-1.7l7-11-2.5-1.4c-.7-.4-.8-1-.5-1.5.4-.6.9-.7 1.6-.4l7.2 4.1c.7.4.9.9.5 1.5s-1 .8-1.6.4l-2.6-1.4-7 11.1c-.4.7-1 .8-1.7.4zm-12.6-7.1h0c-.7-.4-.8-1-.4-1.7l7.5-11.9c.4-.7 1-.8 1.6-.4l2.2 1.2c3.5 2 4.6 4.6 3 7.1-1.1 1.7-3 2.3-5.3 1.7l-.3 7c0 .9-.6 1.3-1.3.9l-.3-.2c-.6-.3-.8-.8-.8-1.5l.5-7.2h-.2c0-.1-1-.7-1-.7l-3.3 5.2c-.4.7-1 .8-1.6.4zm11.6-7.3c.7-1.1.2-2.5-1.7-3.6l-1.2-.7-2.5 4 .7.4c2.5 1.4 3.9 1.1 4.7-.2z" fill="#e73043"/><path d="M137.2 225.1h.2c0 .1-.5 7.3-.5 7.3 0 .7.2 1.1.8 1.5l.3.2c.7.4 1.3 0 1.3-.9l.3-7c2.3.6 4.3 0 5.3-1.7 1.6-2.5.5-5.1-3-7.1l-2.2-1.2c-.7-.4-1.2-.2-1.6.4l-7.5 11.9c-.4.7-.3 1.3.4 1.7h0c.7.4 1.2.3 1.6-.4l3.3-5.2 1 .6zm2.7-6.4l1.2.7c1.9 1.1 2.5 2.4 1.7 3.6-.8 1.3-2.3 1.5-4.7.2l-.7-.4 2.5-4zm15.2 8.6c.7.4 1.2.2 1.6-.4s.2-1.2-.5-1.5l-7.2-4.1c-.7-.4-1.2-.3-1.6.4-.4.6-.2 1.2.5 1.5l2.5 1.4-7 11c-.4.7-.3 1.3.4 1.7h0c.7.4 1.2.3 1.7-.4l7-11.1 2.6 1.4z" fill="#fff"/></svg>