<svg xmlns="http://www.w3.org/2000/svg" viewBox="0 0 442.6 497" xmlns:v="https://vecta.io/nano"><path d="M442.1 417.8v-4.7l-49-31.2-.7 1 49.8 35zm-132.2 48h-.8c1.1.4 2.2.9 3.3 1.4l-.4-1c-.4-.1-.8-.2-1.2-.2-.3 0-.6-.1-.9-.2m132.2-1.4v-8.3L404 424.5l.1 3zm-276.2 32.3h7.3l.2-1.4-7.1-.5-.3 1.9zm105 0h3.1l-1.4-6.5-2.8.6 1.1 6zm171.2-178.9v-8.9l-30.8-7.7-2.8 4.8zM-.2 306.9v11.8L67.2 289zm313.9 172.2l6.7 17.6h4.9l-8.9-20.3c-.7 1.2-1.5 2-2.7 2.7m128.4-268.7v-7.3l-20.2 4.8 2.9 4.5 17.3-2.1zm0-196.7l-35.2 39 35.2-32.4zM-.2 119.9L64.4 148-.2 102zM48.2.9h-16l84.6 111.2 1.4-2.2zm72 0H115l31.4 75.5c.3-.3.7-.6 1-.9zm73.5 45.4l.5 3.8c.2 0 .4-.1.7-.2.4-1.7-.3-2.8-1.2-3.7zm1.7-35.2L194.6.9h-7l2.3 17.3c1.4-2.6 3.2-5 5.5-7.1M316.6.9h-8.3l-13.4 40.6 4.7 1.2zM75.2 346.5l2.9.1 25.6-17.4zm327.2 150.2h6l-26.5-30.9c-1.1.6-2.2 1.1-3.4 1.5zM-.2 223.3v13.8h86.4l1.1-3.2zM415.8.9h-5.6l-55.5 70.8c.3.2.5.4.8.6zM-.2 491.2v5.5h6.8l21.8-27.8-2.2-7.4zm387-112.2h-.2zM42 496.7h8.9l5.6-9.3-6.9-.7zm195.9 0h4.8v-1.2l-4.8.5zm204.2-378.9v-16.7L399.3 131l3 7.7 39.7-20.9zM-.2 392.2v7.6l9.5-6.4-1.5-6z" fill="#efefef"/><path d="M47.1 345.1l63.2-32.8c-.1-.2-.3-.5-.4-.7L45.7 345h1.4zm-12.4 6.3c.5-.3 1.1-.5 1.6-.8h-1.2c-.4.2-.8.4-1.2.7.2 0 .5.1.7.2zm109-1.6c3.1-3.9 6.1-7.9 9.1-11.9h-.2l-10 11.8h1.1zM325.2 52.6L343.9 23l-19.4 29.2c.2.1.5.2.7.3z"/><path d="m409.7 374.7-.3-.2" fill="none" stroke="#0c0c0c" stroke-linecap="round" stroke-linejoin="round"/><path d="M399.7 369c3.2 1.9 6.5 3.7 9.7 5.5a1.44 1.44 0 0 0 .3.2q-4.8-3-9.9-6v.3zM237.3 39.6l.8-28.9-1.7 29.1c.3 0 .6-.1.9-.2m-219 13.2c17.1 16.8 34.6 33.1 52.6 48.9-17.1-16.8-34.6-33.1-52.6-48.9m-18.5-.3C14 65.1 28.5 77.3 43.2 89.2 29 76.4 14.5 63.9-.2 51.7zm82.8 196.2c-10.4-.6-20.9-.9-31.3-1 10.3.9 20.6 1.5 31 1.9 0-.3.2-.6.3-.9M7.5 180.3c11.1 3.7 22.5 6.8 34 9.2-11.1-3.7-22.5-6.8-34-9.2M312.9 47.2c4.1-8.2 8-16.6 11.7-25Q318 34.35 312 46.8c.3.1.6.2.9.4"/><path d="M442.1 57.5v-6.6l-59 51.1 1.5 2.1 57.5-46.7zm-180 439.2h1.9l-.9-4.6-1.7.3zm-8.7-2.7l.3 2.8h3.6l-.5-3.4c-.7.1-1.4.3-2 .4-.5 0-1 .2-1.4.3zM442.1 81.5V68.9L390.2 113l2.2 3.8 49.7-35.2zM288.2 496.7h5.6l-2.9-10.6-4.9 1.1 2.2 9.4zM380.3.9h-4.7l-36.7 59.4c.2 0 .3.2.5.3zm-17.7 495.8h2.1l-16.8-24.2h-.9l15.6 24.1zm79.5-10.4v-4.7l-39.4-41.1-.6 2.1zM325 469.8l13.3 26.9h3.1l-13.9-26.4-2.4-.5h-.2zM398 .9h-9.7l-44.9 62.4 3.2 2.2zm-17.9 495.8h6.5L366.1 471l-4.1.7 18.2 25zm48 0H439l-41.3-44.6c-1.1 1.7-2.4 3.3-3.7 4.8zm14-59.6V431l-44.6-31.8 2 4.2zm0-79.2v-5.3l-47-18.6-1.3 2.5 48.3 21.5zm0-198.7V145l-33.7 16.4 1.7 10.2zM308.9 496.7h2.1l-5.3-14.6c-.5.2-1 .3-1.5.5zm133.2-312.2v-6.6l-28.8 9.6 1.3 4.6 27.6-7.6zm0 14.1v-4.9l-24.7 5.9 1.5 3.1zm0 139.2v-4.2l-45.7-15.7c-.2.2-.4.4-.6.5zM-.2 277.2v12.3L79 273.1l-.1-2.9zm0-83.7v8.7l93.5 14.7.4-1.9zm0 69.2v5l79.5-4.5v-.6H-.2zm0 73.9v8.4L94 300.7c-.6-.4-1.2-.9-1.8-1.4zM1.9.9H-.2v14.8l108.8 111.6 1.4-2.8zm103.9 0h-3.1l38.4 80.4.1-.1zm58.7 0h-4.2l13.2 56.9c.2 0 .4-.2.6-.3zm-23.6 0h-5.3l21.5 66.9a41.94 41.94 0 0 1 2.2-1.5zM-.2 455.9v12.7L21.9 446l-2.2-8.7zM299 .9h-3.7l-10.8 38.5 1.9.3zM65.2 496.7h5.3l4.8-7.7-4.8-.3-5.3 8.1zm28.4 0h4.9l3-6.3c-1.5 0-3-.2-4.5-.2zm-71.3 0h5.5l10.1-12.8c-1.1-.6-2.1-1.4-3-2.2l-12.6 15.1zM-.2 422.3v6.5l14.9-12.7-1-4.3zm132.6 74.4h2.6l1.1-4.3c-.8 0-1.6-.1-2.4-.2l-1.4 4.4zm-26.5 0h8.1l2.2-5.5-7.6-.4zM442.1 3.8V.9h-.8l-61.8 67.3zM70.8.9L111 63.3 73.9.9zm56.2 94L66.8.9h-6zM274.2.9h-2.7l-6.1 36.6h1zm14.6 0h-8.3L272 37.8q2.85.15 5.7.6zM77.8 80L17.8.9H7.6zm-78 74.1v7.5l91.9 32.1zm187.3 342.6h6v-.2c-2 0-4-.2-6-.3zM171.3.9H169l9.4 54.7c.4-.2.8-.3 1.2-.5zM-.2 70.2v6.2L94.9 148zm0 63.1v4.3l70.4 29.7zm152.6 363.4h2.5l.5-2.7c-.8 0-1.6-.1-2.4-.2l-.7 2.9zM-.2 87.5l52.3 35.8-52.3-41zM210.2.9h-4.3l.2 3c1.3-.6 2.7-1.1 4.1-1.6zm-94.4 347.6l1.9.1 18.9-19.4zm308.4-56.1l-1.6.6 19.6 4.3v-8.7l-10-1.5a24.38 24.38 0 0 1-7.9 5.3zm-263.6 58.3h.2l4.5-7.3zm60-311.3l.6-18.2c-2.6 5.7-3 12.6-.6 18.2" fill="#0c0c0c"/><g fill="#fff"><path d="M38.1 475.6c2.1 3.5 7.5 4.3 11.4 4.6 26.4 2.4 55.3 4.3 82 5.9 28.6 1.8 56.4 3.1 85 4.1 6.4.2 18.5 2.6 17.5-6.4-5.6-18.5-9.5-38.3-13.4-58 0-.1 0-.3-.1-.4-3.9-19.3-7.8-38.6-13.3-56.5-1.6-5.2-3.6-9.4-9.7-10.3-4-.6-10.5-.8-14.9-1.1-41.5-2.9-86.5-5.2-129-6.4-6.2.3-12.4.6-18.7.4-.2 0-.5-.1-.7-.2-.9-.2-1.7-.5-2.6-.7h-.8c-4.9 0-14.6-.7-18.8.3-2.5.6-4.1 2.6-4.8 4.9l3 16 28.1 104zm86.5-68.9c8.8-.2 10.4 8.7 8.9 15.7-1.1 5.2-12.6 19.1-17.9 18.7-2.3-.2-13.2-8.6-15.2-10.7-4.5-4.9-9.1-14-3.9-20 7.5-8.7 16.7 3.2 17.9 3 2.2-3.5 5.9-6.6 10.2-6.7m98.7-356.8c-5.1 1.7-9.5-9.9-10.1-13.6-2-12.6 3.1-21.8 11.8-30.2-26-1.5-45.2 27.4-18.1 43.1.4.8-.3 3.6-.8 4.2-.5.7-14.1 3.1-17.1 4.1-42.5 14.4-77.5 63.1-85.5 106.2-3.1 16.9-1.1 31.1-2.6 47.3-2.4 26.6-31.1 62.3-3.9 83.2.8.4 1.6.9 2.2 1.6.9.6 1.8 1.2 2.8 1.7-2.7-8.1-3.8-16.8-3-25.4.3-2.8 1.6-12.2 6-10 3.7 1.8.2 9.3 0 13-1.1 16.2 8 39 25 43.5-1.6-1.8-4.4-13 .5-12 1.9.4 6.2 11.8 8.3 14.7 6 8.3 14.9 12.3 25.2 11.2-8.6-6.2-19.8-11.8-24.5-22-7.1-15.6 0-20.7-.5-33.4-.4-11.9-7.1-25.4-8.8-38.3-10.6-5.3-21.9-11.5-23.9-13.6-4.2-4.5-3.9-7.9-2-13.6 1.8-5.4 11.2-23.1 14.8-27.5 10.1-12.8 23.9 0 34.4 6.8 1.2.7 2.9 1.8 4.8 3.1 4.2-5.7 9.8-25.4 9.6-30.7l5.1-.6v17.5c0 7.8 8 22.8 14 28 3.2 2.8 11.4 5.2 9.9 9.9l-2.4 1.6c-13.9-4.8-23-17.9-26-31.9l-5 9.7c4.4 3 8.7 6.2 9.8 8.2 1.1 1.9.5 5.3-1.1 9.2 2.7.5 4.6 2 2.7 5.7-1.9-.5-3.6-.7-5.1-.5-6.1 11.7-17 25.6-17.6 26-.3.2-1.3.7-1.5.8-.4 0-.8.1-1.2.2-.7 0-1.4 0-2.1-.3-2.3-.9-6-2.5-10.2-4.5 2.4 10.3 7.4 27.8 7.7 32 1 11.3-4.6 19.2-.4 31.3 5.5 15.9 30.4 24.9 45.4 28.5 44.1 10.4 102 4.3 136-27.9 3.8-3.6 5.6-9.5 11.4-9.6 10.1-.1 13.3 3.1 23.8-3.1 19.5-11.4 18.3-47.4-4.8-45.8-8.8.6-8.3 7.5-12.1 13.9-2.5 4.2-14.9 20-20.4 16.6-3.5-3.2.3-6.1 1.3-9.7 2.3-8.6 3.2-29.8-2.4-37.1-.8-1.1-16.1-8.5-19.8-11.2-13.3-9.7-25-25.1-31.1-40.3-1.6-1.5-1.8.1-2 1.5-1.5 10.3-4.7 23.5-12.4 31.1-2.3 2.3-8.9 7.1-10.1 2.3-2.6 3.9-8.1.3-11.5-1.5-7.5-4-14.3-11.8-17.2-19.8-1.1-3.2-4.4-16.7 2.2-13.2 1.9 1 3.4 10.1 4.8 13.2 4 8.9 12.4 15.1 21.5 18.1 7.7-3.6 11.9-12.8 14.4-20.5.8-2.6 3.3-11.7 3.3-13.7v-17l2.5-1.6c1.2-.1 2.1.1 3 1 1.4 1.4 4.8 13.4 6.3 16.7 8.3 18.3 23 36.2 41.1 45.2-.4-5.1-13.4-18-10.5-22 3.6-5 11.2 9.2 13 12.1 10.2 16.3 16.3 34.6 11.6 53.8 1.9.5 1.9-.8 2.8-1.7 2.9-3 7.2-11.4 8.5-15.5 1-3.4.9-12.5 4.2-12.8 4-.4 3.7 3 3.5 6 37.4-4.2 40.2 43.8 11.3 58.7-9.8 5-21.2 1.2-26.3 3.7-.6.3-6.1 7.3-8 9-3.6 3.2-14 9.3-16 12s5 4.2 6.6 4.4c6.4.9 12.6 0 17.9-3.9 3.5-2.5 8.6-12.3 12.6-9.5 4.5 3.1-5.3 10.4-4 11.5 9.5-1.1 18.4-5.6 24.4-13 1.4-1.8 5.6-9.8 6.2-10 8.8-2 1.5 11.3-1.6 14 31.6-1.8 46.8-39.2 36.4-66.4 6.1-8.2 9.1 8.7 9.5 13.1.7 7.8-.2 14.8-1.9 22.3 17.1-4.7 21-26.4 17.3-41.7-4.5-18.7-19.8-31.7-25.8-49.2-4.8-14.2-5.6-30.6-9.6-45.3C382.3 87 320 39.5 252.5 43.9c-3.8.2-15.7 3.2-17.9 2.7-.9-.2-1.5-.7-2-1.3-.9.1-1.9.3-2.8.4a12.65 12.65 0 0 1-2.8.3h-2.3c.7 1.7.7 3.2-1.4 3.9m-23.8 235.3c-5.4 7.1-15.2 11.2-23.8 9.3-3.2 0-6.2-.7-9-1.9-2.9-1.2-5.4-3-7.6-5.1s-3.8-4.7-5.1-7.6c-1.2-2.9-1.9-6-1.9-9.3s.6-6.4 1.9-9.3 2.9-5.4 5.1-7.6c2.1-2.1 4.7-3.8 7.6-5.1 2.9-1.2 6-1.9 9.3-1.9s6.4.6 9.3 1.9c2.9 1.2 5.4 3 7.6 5.1 1.7 1.7 3.1 3.7 4.3 5.8 6.2 7.3 8.8 17.1 2.5 25.6zm64.5-74.9c.3-1.2 2.4-2.1 3.6-2.4 3.3-.8 15.8.2 14.3 5.2-.9 3.2-7-.4-9.5-.5s-9.9 2.9-8.4-2.3m-11.1 48.9c.6-1.5 1.4-2.9 2.3-4.2 3.4-14 16.3-17.9 28.3-15.1 10.1 2.3 21.7 11.9 21.7 25.8s-11.9 28.1-22.9 29.7c-5.9.9-11-1-15.5-4.5-.4-.2-.9-.3-1.3-.5q-4.35-1.8-7.5-5.1c-2.1-2.1-3.8-4.7-5.1-7.5-1.2-2.9-1.9-6-1.9-9.2s.6-6.4 1.9-9.2zm-36 46.3c5.5 1.5 8 5.9 14.3 2.8 2.7-1.4 4.5-6.2 7.7-2.2-2.1 11-23.8 11-22-.5zm30.8 149.3c-.7-.3-1.5-.7-2.2-1.2.3.3.7.7 1.1 1 .8.5 1.6.7 2.3.7-.4-.1-.8-.3-1.2-.5m15.5 4.7c-.9-.1-1.9-.2-2.8-.4.8.5 1.8.6 2.8.4m131-139.2c0-.2.2-.5.3-.7-.1.2-.3.3-.4.4 0 0 0 .2.1.3M239.9 5l-.3-.3c0 .1.1.2.2.3zm-3.2-3.4c-.4.1-.7.3-1.1.4 1.2.5 2.3 1 3.1 1.6-.6-.7-1.3-1.4-1.9-2zM83.1 489.5h.2-.6zm47.6-163.9c.5 0 .9.1 1.4.2-1.6-.6-3.1-1.1-4.6-1.5.7.3 1.5.7 2.2 1 .3.1.6.2 1 .4z"/><path d="M239.2 386c.2 0 .5.2.8.3h.3l1.3.3h.2c1.2.3 2.4.5 3.7.5 2.2 0 4.4-.5 6.5-1.4.9-.3 1.7-.7 2.5-1.2l2.6-1-1.3-1.6c0-2.9 8.7-6.4 11.3-7.7 12.8-6.2 28.5-13.1 41.7-18.3 10-3.9 45-16.6 53-8 1.2 1.3.9 3.5 1.9 5 2.4 3.4 7.7 7 10.5 10.4 4.1 4.9 7.9 10.2 11.6 15.5h.9c7.1-6.4 9-16.9 5.8-25.7-1.9-5.2-6.3-7.7-8.8-12.2 2.5-6.5 9-10.1 5-18.4-6.5 3-14.2.8-20.2 2.2-2.8.6-6.8 4.6-10 6-9.8 4.3-13.7 1.3-22 2.1-1.6.2-3.6 1.9-5.6 2.2-11.3 2.1-17.9-.5-28.1-5.1-15.8 6.4-30.4 19.5-41.9 31.9-2.3 2.5-12.6 16.5-14.5 16.5-10.9-9.6-23.6-20.3-29.6-33.8-9.1.4-26.6-7.5-31.5 1.5-.2 1.5-.6 3-1.2 4.3v1c9.7.5 20.9-.5 26.6 8.8 1.8 2.9 2.8 9.1 4.4 10.6 2.1 2 29.6 8.3 21.3 13.6h-.1c.9.6 1.8 1 2.8 1.4 0 0 .2 0 .3.1zM94.4 188.2c.2.3.3.6.5 1v-1.8c-.1.3-.3.6-.4.9zm214.8 285.9c-.3 0-.4-.3-.4-.6s.4-.4.6-.3h.7l.2-.2s.2 0 .3-.1c.2 0 .5-.2.7-.3h.2c-.2-.1-.3-.4-.2-.7.1-.2.5-.3.7-.2s.3.3.5.5c.1.2.2.4.2.6v.3-.6s0-.2-.1-.3c0-.1-.1-.2-.2-.3-1.8-1.1-3.7-2-5.6-2.6-2-.6-4-1.2-6-1.6a.76.76 0 0 1-.4-.2c-.8-.2-1.6-.5-2.4-.8-.2 0-.4-.2-.6-.3a1.93 1.93 0 0 0-1-.3c-1-.5-1.9-1-2.8-1.4-.3-.1-.7-.2-1-.3-.3 0-.5-.2-.7-.4-.2 0-.3-.1-.5-.2-.2 0-.3-.1-.5-.2-.2 0-.5-.2-.7-.3l-.1-.1c-2.2.3-4.8.9-7.5.6-2.9-.4-5.3-2.3-7-2.5-3-.4-7.9 6.2-16.3 4.3-3.4-.8-5-4-6.6-4.3-5.4-1.1-4.5 2.3-11.9-3-.5-.3-.5-1.9-1.8-2.6-1.4-.7-3.7-.5-5.2-1.7 0 0-.1 0-.2-.1h-1.3c.6 2 1.1 4.1 1.6 6.1 0 .1.1.2.1.3.6 1.9 1.1 3.9 1.6 5.8.3.4.5.9.5 1.3.4 1.2 1 2.4 1.5 3.6l1.2 4.7c0 .1 0 .3.1.4 1.3 4.7 2.5 9.2 1 14.2l70.8-15.9c-.5 0-1 0-1.4-.1zm-.4-2.2c.6 0 .6 1 0 1s-.6-1 0-1"/><path d="M231.8 355.9l14.4 13.4 27.6-28.9-29.4 4.1c-.9.3-12.5 2-18.8 2.8 0 0-.6 0-1.7.2-2 .3 10.3 10.2 8 8.3zM89.1 230.6c-.3.2-.6.5-1 .7l-.9 2.6c-.4 1.1-.7 2.2-1.1 3.2-1.2 3.5-2.3 7-3.2 10.6 1.9-5.7 4.1-11.4 6.2-17.1m311.8 216.5c-.2 0-.3-.2-.5-.3-.2.4-.3.8-.5 1.1.3-.3.6-.5 1-.8m-76.8 22.4c0 .1.2.2.2.4.2 0 .4 0 .6-.1h.2c-.3 0-.7-.2-1-.2z"/></g><path d="M288.3 416.7c.5-.5 1.1-.9 1.7-1.3-.8.1-1.6.3-2.5.5.3.3.6.5.8.8M276.5 412.2c3.8 1.2 5.7-1.4 9.3-2.2 4.5-1 8.7.3 12.4-.5 2.2-.5 6.5-5.3 10-6.8.8-.3 1.6-.6 2.5-1 .8-.4 1.7-.7 2.8-.9 2.6-.7 5.2-1.3 7.4-1.7 4.8-.8 24.1-3.2 26 1.4l-.2.6c1.8-.2 3.6-.5 5.3-.8 12.6-2.3 24.5-3.7 37-2.8 0 0 0-.2-.1-.3-.6-1.1-1.3-2.1-2-3.2 0 .3 0 .5-.4.6-.3 0-.5-.1-.6-.4-.3-1-.7-1.9-1.2-2.8-.2-.2 0-.5.2-.7s.5 0 .7.2c0 .1.1.2.2.3h.1c-8-14.7-18.6-27.8-27.5-34.9-8-6.5-9.6-5.5-19.5-3.6-22.4 4.4-45.1 18.3-66.4 26.5l-1.5 6.5 2.2 25.6h.1c1.1.2 2.2.5 3.3.8ZM344 472.4c1 .2 2 .3 3 .2h.9c-1.3 0-2.6 0-3.9-.1ZM266.4 411.2c-1.1-9.5-1.5-19.2-1.5-28.8l-6.3 2.8-1.4-1.8c-.9.4-1.7.7-2.6 1-.8.5-1.6.9-2.5 1.2-2 .9-4.2 1.4-6.5 1.4s-2.5-.2-3.7-.4h-.2c-.5-.1-.9-.2-1.3-.4h-.3c-.3 0-.5-.2-.8-.3 0 0-.2 0-.3-.1-1-.4-1.9-.8-2.8-1.4H230c1.2 9.2-1.7 22.6 0 31.3.5 2.4 2.7 3.2 3.8 5.3 2.1 4.1-.2 9.9-4.6 11.4l1.1 4.6c.6-.9 1.1-1.9 1.4-2.9 5.8-13.6 20.2-22 34.8-23ZM235.9 446.9s-.1-.2-.2-.3l.5.9h.3c-.2-.1-.4-.4-.6-.6M233.4 453.7c-.2-.2-.4-.3-.6-.5-.3-.2-.6-.4-.9-.7 0 .4.2.7.3 1.1h1.3ZM215.9 378.4l6 28.9 2-17.4-.2-8.3zM236.2 440.1v.3h.1v-.2ZM220.5 425.7v-.5c0 .1 0 .3.1.4Z" fill="#e73043"/><path d="M96.5 410.4c-5.1 6-.5 15 3.9 20 2 2.1 12.9 10.5 15.2 10.7 5.2.4 16.8-13.5 17.9-18.7 1.5-7 0-15.9-8.9-15.7-4.3 0-8 3.2-10.2 6.7-1.2.2-10.4-11.6-17.9-3m184.6-146c.1 0 .2-.2.3-.2h-.9s.1 0 .2.1q1.2.9.3 0zM238.9 306c-3.2-4-5 .9-7.7 2.2-6.2 3.1-8.7-1.2-14.3-2.8-1.8 11.5 19.8 11.5 22 .5zm33.4-93.4c2.5.1 8.6 3.8 9.5.5 1.5-5.1-11-6-14.3-5.2-1.2.3-3.3 1.2-3.6 2.4-1.5 5.2 5.8 2.2 8.4 2.3M238.9 306"/><path d="M237.9 496l4.7-.5c3.7-.4 7.4-1 10.9-1.6.5 0 1-.2 1.4-.3.7-.1 1.3-.3 2-.4q2.1-.45 4.5-.9l1.7-.3c2.2-.4 4.4-.9 6.8-1.4l2.8-.6 13.4-2.9c1.6-.4 3.3-.8 4.9-1.1 4.8-1.1 9.3-2.3 13.4-3.6.5-.2 1-.3 1.5-.5 1.7-.5 3.4-1.1 4.9-1.6 1.3-.5 2.3-.9 3.1-1.4 1.2-.7 2.1-1.5 2.7-2.7.6-1 1-2.4 1.5-4.2-.2-.5-.4-1.1-.5-1.7.3 1.1-.4 2.3-1.4 2.6 0 0 0 .2-.1.3v.1c-.2.3-.4.5-.7.7-.2 0-.3.1-.5.2-.4.1-.7.1-1.1 0-.2 0-.3-.1-.5-.2s-.4-.3-.6-.5c0 0 0-.1-.1-.2 0 0 0-.1.1-.2-.1.1-.2.2-.4.3-.3.2-.6.3-1 .4h-.5L240 489.7c1.4-5 .3-9.6-1-14.2 0-.1 0-.3-.1-.4-.4-1.6-.9-3.1-1.2-4.7-.5-1.2-1.1-2.4-1.5-3.5 0-.6-.1-1-.5-1.4-.6-1.9-1-3.9-1.6-5.8 0-.1 0-.2-.1-.3l-1.6-6.1c0-.4-.2-.7-.3-1.1-.4-.3-.9-.7-1.2-1.1-.5-.7-.7-2-.9-2.9-.6-2.9-.9-6-.4-8.9 0-.3.1-.6.2-.9v-.3c0-.3.2-.6.3-.9v-.2s.1-.2.2-.3l-1.1-4.6c4.4-1.5 6.7-7.3 4.6-11.4-1-2.1-3.3-2.8-3.8-5.3-1.7-8.7 1.2-22.2 0-31.4h6.3c8.3-5.2-19.2-11.5-21.3-13.6-1.6-1.5-2.6-7.7-4.4-10.6-5.7-9.4-16.9-8.4-26.6-8.8v-1c.2-1.7.6-3.2 1.2-4.3 4.9-9 22.4-1.1 31.5-1.5 6.1 13.5 18.7 24.2 29.6 33.8 1.8 0 12.1-14 14.5-16.5 11.5-12.5 26.2-25.5 41.9-31.9 10.2 4.6 16.8 7.2 28.1 5.1 2-.4 4-2.1 5.6-2.2 8.3-.8 12.2 2.2 22-2.1 3.2-1.4 7.3-5.3 10-6 6-1.3 13.8.8 20.2-2.2 4 8.3-2.5 11.8-5 18.4 2.5 4.5 7 7.1 8.8 12.2 3.2 8.8 1.3 19.4-5.8 25.7-.2.1-.3.3-.5.4-.1-.2-.2-.3-.4-.5-3.8-5.2-7.5-10.5-11.6-15.5-2.9-3.5-8.1-7-10.5-10.4-1.1-1.5-.7-3.8-1.9-5-8-8.6-43 4.1-53 8-13.2 5.2-28.9 12.1-41.7 18.3-2.6 1.3-11.4 4.7-11.3 7.7l1.3 1.6 1.4 1.8 6.3-2.8c0 9.6.4 19.2 1.5 28.8h3.7c.3 0 .7.1 1.1.2h.8a.9.9 0 0 1 .5.1h.6l-2.2-25.6 1.5-6.5c21.3-8.2 44-22.1 66.4-26.5 9.9-1.9 11.5-2.9 19.5 3.6 8.8 7.1 19.5 20.2 27.5 34.9 1.4-.8 4.6-2.5 4.8-2.6 1 1.1 1.9 2.3 2.7 3.5l-3.3-6.5c.8-.9 1.6-1.9 2.3-2.8.3-.3.5-.6.7-1 3-4.1 5.4-8.4 6.7-12.9v-.3c1.4-5.3 1.3-10.9-.8-16.9-1.1-3.2-6.9-10-7-10.9-.2-.9.8-2.6 1.8-4.4.5-.8.9-1.7 1.3-2.5.3-.7.6-1.4.7-2 .6-3.7.4-8.3-1.5-11.6 0 0 0-.2-.1-.3.1-.2.3-.3.4-.4l1.2-1.2c.2-.2.4-.4.6-.5 3.8-3.5 8.2-6.7 11.4-10.8.2-.2.4-.6.7-1 .8-1.2 1.8-3 2.8-4.8 1.7-3.1 3.4-6.2 3.7-6.5.4-.3 4.6-.9 7.5-1.7.6-.2 1.2-.4 1.6-.6 3-1.4 5.6-3.2 7.9-5.3 11.9-11.6 12.5-33.1 7.8-48-3.2-10-9.4-18.3-15-26.7-1-1.5-2-3-2.9-4.5-1.1-1.7-2.1-3.4-3-5.2l-1.5-3.1c-.7-1.6-1.4-3.2-2-4.9-.3-.8-.6-1.7-.8-2.6-.5-1.5-.9-3-1.3-4.6-1.3-5.2-2.2-10.5-3.1-16l-1.7-10.2c-.8-4.6-1.8-9.2-3.1-13.6-.9-3.1-1.9-6.1-3-9.1-.9-2.6-2-5.2-3-7.7-2.1-4.9-4.4-9.7-7-14.3a74.27 74.27 0 0 0-2.2-3.8c-1.8-3-3.6-5.9-5.6-8.7l-1.5-2.1c-7.9-11.1-17.2-21.1-27.6-29.8-.3-.2-.5-.4-.8-.6-2.6-2.2-5.3-4.2-8.1-6.2-1.1-.8-2.1-1.5-3.2-2.2-1.3-.9-2.7-1.8-4.1-2.7-.2 0-.3-.2-.5-.3-4.5-2.8-9.1-5.4-13.8-7.7-.2-.1-.5-.2-.7-.3-3.8-1.8-7.7-3.5-11.6-5.1-.3-.1-.6-.2-.9-.4-4.1-1.5-8.2-2.9-12.4-4.1-1.6-.4-3.1-.9-4.7-1.2a116.33 116.33 0 0 0-8.5-1.8l-1.9-.3c-2.3-.4-4.6-.7-6.9-1l-5.7-.6c-1.8-.1-3.7-.3-5.5-.3h-1c-6.2-.2-12.6 0-18.9.7-1.7.2-6 .8-9.2 1.5-.3 0-.6.1-.9.2-1.1.3-2 .5-2.5.7-2.2 1.1-2.4 3.4-1.4 4.9.4.7 1.1 1.2 2 1.3 2.2.4 14.1-2.5 17.9-2.7 67.6-4.4 129.8 43 147.3 107.4 4 14.7 4.8 31.1 9.6 45.3 5.9 17.5 21.2 30.5 25.8 49.2 3.7 15.4-.2 37-17.3 41.7 1.7-7.5 2.6-14.6 1.9-22.3-.4-4.5-3.4-21.4-9.5-13.1 10.5 27.2-4.7 64.6-36.4 66.4 3.1-2.7 10.5-16 1.6-14-.6.1-4.7 8.2-6.2 10-6 7.4-14.9 11.9-24.4 13-1.3-1.2 8.5-8.4 4-11.5-4-2.8-9 7-12.6 9.5-5.3 3.8-11.5 4.8-17.9 3.9-1.7-.2-8.7-1.8-6.6-4.4s12.4-8.7 16-12c1.9-1.7 7.3-8.7 8-9 5.1-2.5 16.6 1.4 26.3-3.7 28.9-14.9 26.1-63-11.3-58.7.2-3.1.5-6.4-3.5-6-3.3.3-3.2 9.4-4.2 12.8-1.2 4.1-5.6 12.5-8.5 15.5-.9.9-.9 2.2-2.8 1.7 4.7-19.2-1.4-37.5-11.6-53.8-1.8-2.9-9.4-17.1-13-12.1-2.9 4 10.1 16.9 10.5 22-18.2-9-32.8-27-41.1-45.2-1.5-3.3-4.9-15.2-6.3-16.7-.9-.9-1.8-1.2-3-1l-2.5 1.6v17c0 2-2.5 11.1-3.3 13.7-2.4 7.7-6.7 16.9-14.4 20.5-9.1-3-17.5-9.1-21.5-18.1-1.4-3.1-2.9-12.2-4.8-13.2-6.6-3.5-3.4 10-2.2 13.2 2.9 8 9.7 15.8 17.2 19.8 3.4 1.8 8.9 5.3 11.5 1.5 1.2 4.8 7.8 0 10.1-2.3 7.7-7.5 10.9-20.8 12.4-31.1.2-1.4.4-3 2-1.5 6.1 15.3 17.8 30.6 31.1 40.3 3.7 2.7 19 10 19.8 11.2 5.5 7.3 4.7 28.5 2.4 37.1-1 3.7-4.8 6.5-1.3 9.7 5.6 3.4 17.9-12.4 20.4-16.6 3.8-6.4 3.3-13.3 12.1-13.9 23.1-1.7 24.3 34.4 4.8 45.8-10.6 6.2-13.8 2.9-23.8 3.1-5.9 0-7.7 6-11.4 9.6-34 32.2-91.9 38.3-136 27.9-15.1-3.6-39.9-12.6-45.4-28.5-4.2-12.1 1.4-20 .4-31.3-.4-4.1-5.4-21.7-7.7-32-2.2-1-4.5-2.2-6.9-3.4 1.7 12.9 8.4 26.4 8.8 38.3.4 12.7-6.6 17.8.5 33.4 4.6 10.2 15.9 15.8 24.5 22-10.3 1-19.2-3-25.2-11.2-2.1-2.9-6.4-14.3-8.3-14.7-4.9-1-2.1 10.1-.5 12-17-4.4-26.1-27.3-25-43.5.2-3.7 3.7-11.2 0-13-4.4-2.1-5.7 7.2-6 10-.8 8.6.3 17.3 3 25.4-1-.6-1.9-1.1-2.8-1.7-.8-.5-1.5-1.1-2.2-1.6-27.2-20.9 1.4-56.6 3.9-83.2 1.5-16.2-.5-30.5 2.6-47.3 8-43.1 43-91.8 85.5-106.2 3-1 16.5-3.4 17.1-4.1.5-.7 1.2-3.5.8-4.2-27-15.7-7.9-44.5 18.1-43.1-8.7 8.4-13.7 17.6-11.8 30.2.6 3.8 5 15.3 10.1 13.6 2-.7 2.1-2.2 1.4-3.9-1-2.4-3.4-5.1-3.9-6.3 0-.1 0-.2-.1-.3-2.4-5.7-2-12.5.6-18.2 1.4-3.2 3.5-6 6.2-8.1 3.2-2.4 10.3-4 11.6-5.4.9-1 1-1.9.7-2.7 0-.1 0-.2-.2-.3-.2-.4-.5-.7-1-1.1-.8-.6-1.9-1.2-3.1-1.6-2.7-1-5.9-1.6-7.3-1.8-4.3-.5-8.7-.2-12.9.7-1.8.4-3.5.8-5.2 1.4-1.4.5-2.8 1-4.1 1.6-4 1.8-7.7 4.3-10.7 7.2-2.2 2.1-4.1 4.5-5.5 7.1-3.9 7.3-4.2 16.2 1.6 25.8.6.9 1.5 1.6 2.3 2.4.9.9 1.6 1.9 1.2 3.7-.2 0-.4.1-.7.2-5 1.2-10 2.9-14.8 4.9-.4.2-.8.3-1.2.5-1.4.6-2.8 1.3-4.2 2-.2 0-.4.2-.6.3-4.9 2.4-9.7 5.3-14.3 8.5-.7.5-1.4 1-2.2 1.5-3.3 2.4-6.6 5-9.7 7.7-.3.3-.7.6-1 .9-1.8 1.6-3.5 3.2-5.2 4.8l-.1.1c-8.6 8.5-16.3 18.1-22.9 28.5-.5.7-.9 1.5-1.4 2.2-2.5 4-4.7 8.2-6.8 12.3-.5.9-.9 1.9-1.4 2.8-7.6 16-12.4 32.9-13.6 49.1-.3 3.6-.2 7.3-.1 11.1v1.8c.2 5.8.5 11.5.1 17.1-.2 3-.7 5.9-1.3 8.8-.1.6-.3 1.3-.4 1.9-1.1 4.6-2.6 9.1-4.2 13.7l-6.2 17.1c-.1.3-.2.6-.3 1 0 .3-.2.6-.3.9-1.4 4.4-2.5 8.7-3 13.2v.6c-.3 2.3-.4 4.6-.4 6.9 0 1 0 1.9.1 2.9a42.45 42.45 0 0 0 2.5 11.4c1.8 4.8 6 10.8 10.6 14.7.6.5 1.2 1 1.8 1.4.9.7 1.8 1.2 2.7 1.7 2.8 1.4 7.1 1.8 8.9 3.1.9.7 2.6 3.5 4.3 6.2.1.2.3.5.4.7 1.1 1.7 2.2 3.3 3.1 4.2 5.1 5.1 9.5 6.3 14.1 7.7 1.5.5 3 .9 4.6 1.5.9.4 1.8.8 2.8 1.3 1.8 1 4 4.1 6.3 5.6 3.8 2.5 7.5 4.3 11.4 5.2h.2c3.3.8 6.8.9 10.6.5 3.4-.4 6.9-2.8 9-2.9 2.9 0 7.1 3.2 10.5 2.9-3.2 3.9-5.9 7.6-6 13L160 351h-.2l-16.8-.8h-1.1l-25-1.3h-1.8L77.4 347h-2.9c0-.1-28.2-1.5-28.2-1.5h-1.4l-32.1-1.6c-8.2 1.4-14.3 7.7-13.4 16.4 2.8 9 5.3 18.2 7.7 27.5l1.5 6 4.4 18.5c.3 1.4.7 2.9 1 4.3l5.1 21.3 2.2 8.7c1.3 5.2 2.8 10.3 4.2 15.4.7 2.5 1.5 4.9 2.2 7.4.4 1.4.9 2.8 1.3 4.1 1.2 3.5 2.9 6.4 5.2 8.6.9.9 1.9 1.6 3 2.2 1.9 1.1 4.1 1.8 6.7 2.2l5 .6c2.3.3 4.6.5 6.9.7l13.9 1.2 4.8.3 7.4.5h.6l13.8.7c1.5 0 3 .2 4.5.2l7 .3c2.6.1 5.1.3 7.6.4l9.4.5 8.2.6c.8 0 1.6.1 2.4.2l16.9 1.3c.8 0 1.6.1 2.4.2l10.8.9c2.4.2 4.7.4 7.1.5l13.8.9 6 .3c15.4.7 30.6.8 44.7-.5zm-14.1-148.5c1.1-.2 1.7-.2 1.7-.2 6.3-.8 17.9-2.5 18.8-2.8l29.4-4.1-27.6 28.9-14.4-13.4c2.3 1.9-10-8-8-8.3zm.1 42.4l-2 17.5-6-28.9 7.8 3.2.2 8.3zM7 355.6c.7-2.3 2.3-4.3 4.8-4.9 4.2-1 14-.4 18.8-.3h5.9l17.1.4c42.5 1.2 87.5 3.5 129 6.4 4.4.3 10.9.5 14.9 1.1 6.1.9 8.1 5 9.7 10.3 5.6 17.9 9.5 37.1 13.3 56.5v.5c3.9 19.7 7.8 39.5 13.4 58 1 9-11.1 6.6-17.5 6.4-28.6-.9-56.4-2.3-85-4.1l-82-5.9c-3.9-.4-9.3-1.1-11.4-4.6l-28.1-104-3.3-12.3c-.1-1.2 0-2.5.3-3.7zm167.9-135c1.9-3.7 0-5.2-2.7-5.7l-2.4 5.2c1.5-.2 3.2 0 5.1.5m-6.4-32.8c3 14 12.1 27.1 26 31.9l2.4-1.6c1.5-4.6-6.8-7.1-9.9-9.9-6-5.2-14-20.2-14-28v-17.5l-5.1.6c.2 5.2-5.4 25-9.6 30.7 1.6 1 3.5 2.2 5.2 3.4l5-9.7zm220.4 209.8s-.1-.2-.2-.3c0 0 0 .2.1.3zm7.4 20.4"/><g fill="#e72e44"><path d="M351.9 400.4l-5.3.8-.5 1.9c-2 1.9-11 1-14.5 1.3-4.2.4-8.3.9-12.4 1.8 6.1 4.6 4.4 16.6-4.9 17.2 6.4 11.2 7.2 23.3 3.1 36.9.3 1.8 7.9 3.3 10.1 3.6 4.4.8 42.6 11.8 60.8-10.7 5.9-7.2 8.9-16.9 8.7-27.2-.2.5-1 .5-1-.1.1-1.3 0-2.6-.2-3.9 0-.7-.2-1.3-.3-2 0-.6-.1-1.2-.4-1.7v-.3c-.4-1.3-1.1-2.6-2.1-3.6-.4-.5.3-1.2.7-.7q1.65 1.8 2.4 4.2c-1.1-6.8-3.6-13.8-7.4-20.4-12.5-.9-24.3.6-37 2.8zm40.1 8.2c-.6 0-.6-1 0-1s.6 1 0 1m-78.6-7.7c-1 .2-2 .4-2.8.9l2.8-.9"/><path d="M319.2 406.2l-3.7.9c-2.3.7-11.1 3-9.5 6.5 0 .2 2 1 2.7 1.8 2.2 2.6 4.1 5.3 5.7 8 9.3-.6 11-12.6 4.9-17.2z"/></g><path d="M289.4 427.6c-13.8-18.6-47.9-8.8-53.2 12.5v.2h-.1c-.4 1.9-.7 3.8-.6 5.9l.2.4a1.44 1.44 0 0 0 .2.3c.2.3.4.5.6.7l2.6.7c-2.6-5.6 18.6-24.2 17.5-13.9-.2 1.8-16 13.5-11.2 19.1.7.5 1.5.9 2.2 1.2.4.2.8.3 1.2.5 3.5-.1 5.6-6.3 8.2-9.1 1.7-1.9 8.7-8.7 10.8-5 2.7 4.5-12.2 11.2-8.6 16.7q.6.75 1.2 1.2c.9.2 1.9.3 2.8.4 3.8-.8 8.5-5.4 11.2-5.6 3.9-.2 11.1 5.7 17.5 2.4 7.5-3.8 1.5-23.2-2.6-28.7zm-1.1-10.9c11.7 11.5 16.6 26.2 11 42.4 12.4 2.8 14.3-2.9 14.4-14.1 0-2.6-.3-5.4-1-8.2-.9-2.3-1.9-4.6-3.1-6.8v-2.1c-4-7.8-10.7-13.8-19.6-12.6-.6.4-1.1.8-1.7 1.3z" fill="#fff"/><path d="M385.8 391.4h-.1c.5.8.9 1.7 1.1 2.7l2 3.2a1.44 1.44 0 0 0 .2.3c3.8 6.6 6.3 13.5 7.4 20.4 0 .2.1.4.2.7v.3c0 .3.1.7.2 1 0 .7.2 1.3.3 2 .2 1.4.3 2.7.2 4.1v.1c.1 10.3-2.8 20-8.7 27.2-18.3 22.4-56.5 11.4-60.8 10.7-2.2-.4-9.8-1.9-10.1-3.6 4.1-13.6 3.3-25.7-3.1-36.9-1.6-2.7-3.4-5.4-5.7-8-.7-.9-2.6-1.7-2.7-1.8-1.6-3.4 7.3-5.8 9.5-6.5 1.2-.4 2.5-.7 3.7-.9 4.1-.9 8.2-1.3 12.4-1.8 3.5-.3 12.5.5 14.5-1.3l.5-1.9.2-.6c-1.8-4.6-21.2-2.2-26-1.4-2.2.4-4.8 1-7.4 1.7-1 .3-1.9.6-2.8.9s-1.8.6-2.5 1c-3.5 1.5-7.7 6.4-10 6.8-3.7.8-7.9-.5-12.4.5-3.7.9-5.5 3.5-9.3 2.2-1.1-.3-2.2-.5-3.3-.8h-.7c-.2 0-.3 0-.5-.1h-.8c-.4 0-.7-.1-1.1-.2H269c-.8 0-1.7 0-2.5.1-14.5 1-29 9.4-34.8 23-.4 1-.9 2-1.4 2.9 0 0-.1.2-.2.3v.2c0 .3-.2.6-.3.9v.3c0 .3-.1.6-.2.9-.5 3-.2 6 .4 8.9.2.9.4 2.2.9 2.9.3.4.7.8 1.2 1.1.3.2.6.4.9.7.2.1.4.3.6.5 0 0 .1 0 .2.1 1.5 1.2 3.8 1 5.2 1.7s1.4 2.2 1.8 2.6c7.5 5.3 6.5 1.9 11.9 3 1.6.3 3.2 3.5 6.6 4.3 8.5 1.9 13.4-4.6 16.3-4.3 1.6.2 4 2.1 7 2.5 2.7.4 5.3-.3 7.5-.6-.3-.2-.4-.4-.7-.7a1.93 1.93 0 0 1-.3-1v-.5c0-.3.3-.6.5-.9l.4-.3c.2-.1.5-.2.7-.2h1.5c.2 0 .3.1.5.2 2.2.9 4.4 1.9 6.6 2.9.2 0 .3.2.4.3.2.1.5.2.7.4 2.6.6 5.1 1.2 7.6 2 .3.1.7.2 1 .4h.8c.3 0 .6.1.9.2.4 0 .8 0 1.2.2h.2c.5 0 1 .2 1.5.4 3.3 1 6.8 2 10.4 2.9.3 0 .7.2 1 .2.8.2 1.6.3 2.4.5q8.1 1.65 16.5 2.1c1.3 0 2.6.1 3.9.1 4.8 0 9.5-.2 14.1-.8 1.4-.2 2.8-.4 4.1-.7 4.4-.8 8.6-2.1 12.5-3.7l3.4-1.5c4.6-2.3 8.6-5.2 12-8.9 1.4-1.5 2.6-3.1 3.7-4.8.9-1.3 1.6-2.7 2.3-4.1.2-.4.3-.7.5-1.1.6-1.4 1.1-2.8 1.6-4.3l.6-2.1c1-3.9 1.5-8.3 1.4-13 0-1 0-1.9-.1-3v-.6c-.6-8.8-2.5-15.6-3.6-18.6-.2-.7-.5-1.3-.8-1.9-.6-1.4-1.3-2.9-2-4.2-1.3-2.4-2.7-4.7-4.3-6.9l-2.7-3.5c-.2.1-3.4 1.8-4.8 2.6zm-95.8 24c9-1.2 15.7 4.7 19.6 12.6 1.4 2.8 2.5 5.8 3.2 8.8.7 2.8 1 5.6 1 8.2 0 11.2-2 16.9-14.4 14.1 5.6-16.2.7-31-11-42.4-.3-.3-.6-.5-.8-.8.9-.2 1.7-.4 2.5-.5zm2 41c-6.5 3.2-13.6-2.7-17.5-2.4-2.8.2-7.5 4.8-11.2 5.6-1 .2-2 .1-2.8-.4q-.6-.45-1.2-1.2c-3.6-5.5 11.3-12.1 8.6-16.7-2.2-3.7-9.1 3.1-10.8 5-2.6 2.9-4.7 9-8.2 9.1-.7 0-1.4-.2-2.3-.7-.5-.3-.8-.6-1.1-1-4.9-5.6 11-17.4 11.2-19.1 1.1-10.4-20.1 8.2-17.5 13.9l-2.6-.7h-.3l-.5-1-.2-.4c0-2 .2-4 .6-5.9v-.3c5.3-21.4 39.3-31.1 53.2-12.5 4.1 5.5 10.1 25 2.6 28.7"/><path d="M308.1 465.4c-2.5-.8-5.1-1.5-7.6-2-.2-.1-.5-.3-.7-.4-.1-.1-.3-.2-.4-.3l-6.6-2.9c-.2 0-.3-.1-.5-.2h-.7c-.3 0-.5-.1-.8 0-.3 0-.5 0-.7.2l-.4.3c-.2.2-.4.5-.5.9v.5c0 .4 0 .7.3 1 .3.4.4.5.7.7l.1.1c.2.1.5.2.7.3.2 0 .4.1.5.2.2 0 .3.1.5.2.2.2.4.3.7.4l1 .3 2.8 1.4a1.69 1.69 0 0 1 1 .3l.6.3 2.4.8c.2 0 .3.1.4.2l6 1.6c1.9.6 3.8 1.5 5.6 2.5v.2s.2.2.2.3c0 0 0 .2.1.3v.6s0 .1-.1.2c0 0 0 .1.1.2.1.2.3.4.6.5.2 0 .3.1.5.2.3.1.7.1 1.1 0 .2 0 .3-.1.5-.2.3-.2.5-.4.7-.7v-.1s0-.2.1-.3c1-.3 1.7-1.5 1.4-2.6-.1-.4-.4-.8-.8-1.1l-4.2-2.4-3.3-1.4c-.3-.1-.7-.3-1-.4z"/><path d="M308.8 471.9c-.6 0-.6 1 0 1s.6-1 0-1m3.9 1.5v-.1c0-.1 0 0 0 0v-.2c0-.2 0-.5-.2-.6-.1-.2-.3-.3-.5-.5-.2-.1-.6 0-.7.2s0 .5.2.7h-.2c-.2 0-.4.2-.7.3 0 0-.2 0-.3.1l-.2.2h-.7c-.2 0-.6 0-.6.3s0 .5.4.6c.5.1 1 .2 1.4.1h.5c.3 0 .6-.2 1-.4.2 0 .3-.2.4-.3z" fill="#fff"/><path d="M384.8 391c-.2.1-.3.5-.2.7.6.9 1 1.8 1.2 2.8 0 .2.4.4.6.4.3 0 .4-.4.4-.6-.2-.9-.6-1.8-1.1-2.7 0-.1-.1-.2-.2-.3-.1-.2-.5-.3-.7-.2zm7.2 17.6c.6 0 .6-1 0-1s-.6 1 0 1m2 5.2c-.4-.5-1.1.2-.7.7q1.5 1.5 2.1 3.6v.3c.2.5.3 1.1.4 1.7 0 .7.2 1.3.3 2 .2 1.3.3 2.6.2 3.9 0 .6.8.6 1 .1v-.1c.1-1.4 0-2.7-.2-4.1 0-.7-.2-1.3-.3-2 0-.4 0-.7-.2-1v-.3c0-.2-.1-.4-.2-.7q-.75-2.4-2.4-4.2z" fill="#e72e44"/><path d="M149.4 247.1c.4 0 .8 0 1.2-.2.2 0 1.2-.6 1.5-.8.6-.4 11.5-14.3 17.6-26 .9-1.8 1.8-3.6 2.4-5.2 1.6-3.9 2.2-7.3 1.1-9.2-1.2-2.1-5.4-5.3-9.8-8.2l-5.2-3.4c-2-1.2-3.7-2.3-4.8-3.1-10.5-6.8-24.3-19.6-34.4-6.8-3.5 4.5-12.9 22.1-14.8 27.5-1.9 5.7-2.2 9.1 2 13.6 2 2.1 13.3 8.3 23.9 13.6l6.9 3.4c4.2 2 7.9 3.6 10.2 4.5.7.2 1.4.4 2.1.3zm-5.6-9.8c-.7-.4-.8-1-.4-1.7l7-11-2.5-1.4c-.7-.4-.8-1-.5-1.5.4-.6.9-.7 1.6-.4l7.2 4.1c.7.4.9.9.5 1.5s-1 .8-1.6.4l-2.6-1.4-7 11.1c-.4.7-1 .8-1.7.4zm-12.5-7.1c-.7-.4-.8-1-.4-1.7l7.5-11.9c.4-.7 1-.8 1.6-.4l2.2 1.2c3.5 2 4.6 4.6 3 7.1-1.1 1.7-3 2.3-5.3 1.7l-.3 7c0 .9-.6 1.3-1.3.9l-.3-.2c-.6-.3-.8-.8-.8-1.5l.5-7.2h-.2c0-.1-1-.7-1-.7l-3.3 5.2c-.4.7-1 .8-1.6.4zm11.6-7.3c.7-1.1.2-2.5-1.7-3.6l-1.2-.7-2.5 4 .7.4c2.5 1.4 3.9 1.1 4.7-.2z" fill="#e73043"/><path d="M137.2 225.1h.2c0 .1-.5 7.3-.5 7.3 0 .7.2 1.1.8 1.5l.3.2c.7.4 1.3 0 1.3-.9l.3-7c2.3.6 4.3 0 5.3-1.7 1.6-2.5.5-5.1-3-7.1l-2.2-1.2c-.7-.4-1.2-.2-1.6.4l-7.5 11.9c-.4.7-.3 1.3.4 1.7s1.2.3 1.6-.4l3.3-5.2 1 .6zm2.7-6.4l1.2.7c1.9 1.1 2.5 2.4 1.7 3.6-.8 1.3-2.3 1.5-4.7.2l-.7-.4 2.5-4zm15.2 8.6c.7.4 1.2.2 1.6-.4s.2-1.2-.5-1.5l-7.2-4.1c-.7-.4-1.2-.3-1.6.4-.4.6-.2 1.2.5 1.5l2.5 1.4-7 11c-.4.7-.3 1.3.4 1.7s1.2.3 1.7-.4l7-11.1 2.6 1.4zm42.8 34c1.2 2.9 1.9 6 1.9 9.3s-.6 6.4-1.9 9.3c-1.2 2.9-2.9 5.4-5.1 7.6-2.2 2.1-4.7 3.8-7.6 5.1-2.9 1.2-6 1.9-9.3 1.9h-.3c8.7 2 18.5-2.1 23.8-9.3 6.3-8.4 3.7-18.2-2.5-25.6.3.6.6 1.1.8 1.7zm67.6-14.7c2.9-1.2 6-1.9 9.2-1.9s6.4.6 9.2 1.9 5.4 2.9 7.5 5.1 3.8 4.6 5.1 7.5c1.2 2.9 1.9 6 1.9 9.2s-.6 6.4-1.9 9.2q-1.8 4.35-5.1 7.5c-3.3 3.15-4.6 3.8-7.5 5.1-2.9 1.2-6 1.9-9.2 1.9s-5.5-.5-8-1.4c4.4 3.5 9.5 5.4 15.5 4.5 11.1-1.6 22.9-15.8 22.9-29.7s-11.6-23.5-21.7-25.8c-11.9-2.8-24.9 1.2-28.3 15.1.8-1.2 1.7-2.3 2.8-3.3q3.15-3.15 7.5-5.1zm3.3 24.3l-3.6 11.8 9.5-7.2 9.5 7.2-3.6-11.8 9.5-6.8h-8.8s-.2.1-.3.2c.5.5.5.5-.3 0 0 0-.2 0-.2-.1h-1.9l-3.8-12.3-3.8 12.3h-11.6l9.5 6.8zm-89-4.6l-3.8-12.4-3.8 12.4h-11.7l9.5 6.8-3.5 11.8 9.5-7.3 9.5 7.3-3.6-11.8 9.6-6.8z" fill="#fff"/><path d="M258 285.2q3.15 3.15 7.5 5.1c.4.2.8.3 1.3.5 2.5.9 5.2 1.4 8 1.4s6.4-.6 9.2-1.9q4.35-1.8 7.5-5.1c3.15-3.3 3.8-4.6 5.1-7.5 1.2-2.9 1.9-6 1.9-9.2s-.6-6.4-1.9-9.2q-1.8-4.35-5.1-7.5c-3.3-3.15-4.6-3.8-7.5-5.1s-6-1.9-9.2-1.9-6.4.6-9.2 1.9q-4.35 1.8-7.5 5.1c-3.15 3.3-1.9 2.1-2.8 3.3-.9 1.3-1.7 2.7-2.3 4.2-1.2 2.9-1.9 6-1.9 9.2s.6 6.4 1.9 9.2q1.8 4.35 5.1 7.5zm13-21l3.8-12.3 3.8 12.3h11.6l-9.5 6.8 3.6 11.8-9.5-7.2-9.5 7.2 3.6-11.8-9.5-6.8zm-95 30.2c3.3 0 6.4-.6 9.3-1.9 2.9-1.2 5.4-3 7.6-5.1 2.1-2.1 3.8-4.7 5.1-7.6 1.2-2.9 1.9-6 1.9-9.3s-.6-6.4-1.9-9.3l-.8-1.7c-1.1-2.2-2.6-4.1-4.3-5.8-2.1-2.1-4.7-3.8-7.6-5.1-2.9-1.2-6-1.9-9.3-1.9s-6.4.6-9.3 1.9c-2.9 1.2-5.4 3-7.6 5.1-2.1 2.1-3.8 4.7-5.1 7.6s-1.9 6-1.9 9.3.6 6.4 1.9 9.3c1.2 2.9 2.9 5.4 5.1 7.6s4.7 3.8 7.6 5.1c2.8 1.2 5.8 1.8 9 1.9h.3zm5.9-21.3l3.6 11.8-9.5-7.3-9.5 7.3 3.6-11.8-9.5-6.8h11.7l3.8-12.4 3.8 12.4h11.7l-9.5 6.8z"/></svg>