<svg xmlns="http://www.w3.org/2000/svg" id="_图层_2" data-name="图层 2" viewBox="0 0 442.58 497.05"><defs><style>.cls-3{fill:#e73043}</style></defs><g id="_图层_3" data-name="图层 3"><path d="M441.34 251.63c-.3-2.87-.62-5.74-.75-8.63-1.58-2.79-2.95-5.74-4.22-8.76-3.25-2.93-6.13-6.37-8.84-10.16-6.96-9.75-10.86-21.94-14.08-33.41-.31-1.12-.57-2.25-.78-3.37-.01-.02-.03-.04-.04-.05-3-4.72-4.63-9.81-4.88-15.28-.23-1.01-.39-2.03-.51-3.04-2.94-5.78-4.55-12.25-4.76-18.74-1.6-7.42-3.77-14.73-5.1-22.23-.18-.08-.35-.16-.53-.25-4.05-2.4-7.28-5.62-9.67-9.67-.91-2.15-1.81-4.29-2.72-6.44a27.2 27.2 0 0 1-.96-7.22c-3.14-2.41-5.62-5.43-7.47-8.87-3.68-2.36-6.75-5.65-9.13-9.34-.75-1.16-1.36-2.38-1.86-3.63-.63-.52-1.24-1.05-1.84-1.61-5.34-4.93-11.21-9.4-16.59-14.32-3.66-1.73-7.4-3.33-11.13-4.98-6.89-3.05-12.94-6.95-18.73-11.28-.97-.15-1.92-.35-2.84-.61-6.83-1.93-13.44-4.83-19.8-7.95-5.82-.46-11.63-1-17.48-2.01-1.65-.28-3.26-.75-4.82-1.35-2.38 1.42-5.09 2.21-7.84 2.06-1.46-.08-2.89-.12-4.36-.06-.23 0-1.71.15-2.23.18-.57.12-1.94.36-2.15.4-1.15.23-2.29.48-3.43.72-2.77.6-5.52 1.14-8.29 1.62-1.58.74-3.32 1.11-5.18 1.28-.42.03-.84.08-1.25.13-.79.12-1.58.25-2.37.36-1.65.25-3.31.48-4.97.68-.87.2-1.8.31-2.8.31-.09 0-.17-.01-.26-.01-.05 0-.1 0-.16.01-6.49.42-11.34-5.66-11.61-11.61-.03-.76.02-1.48.14-2.19-.61-2.05-.7-4.1-.24-6.15.1-2.12.73-4.09 1.89-5.92 1-1.86 2.37-3.34 4.1-4.47.14-.13.29-.23.44-.35 1.26-1.14 2.7-2 4.32-2.52.94-.49 1.91-.85 2.93-1.08.53-.81 1.14-1.56 1.88-2.25 1.44-1.55 3.15-2.65 5.12-3.29a12.1 12.1 0 0 1 4.37-1.31c-.09-.1-.18-.21-.27-.31-.93-1.07-1.9-2.09-2.89-3.1-1.47.58-2.95 1.06-4.43 1.38-11.66 2.48-23.2 5.38-34.59 8.86-.03 1.9-.53 3.78-1.58 5.44-1.31 2.06-2.87 3.91-4.38 5.82-.12.15-.2.25-.27.33q-.06.105-.15.24c-.16.27-1.03 1.9-.86 1.51-1 2.39-1.66 6.75-2.64 9.88 0 0 0 .02-.01.03.15.06.29.13.43.19.03.01.06.03.09.04 11.43 3.25 10.28 22.75-3.41 22.75-.78 0-1.52-.08-2.22-.2-1.19.42-2.43.66-3.74.67l-1.38-.18c-3.03 2.27-5.67 5.22-8.65 7.6-3.97 3.18-8.14 6.07-12.38 8.87-2.66 1.75-5.9 1.99-8.86 1.14q-.66 1.245-1.35 2.49c-3.85 6.94-9.45 12.05-15.93 15.36-.14 2.8-1.28 5.56-3.3 7.74-1.62 1.75-3.46 3.06-5.47 4.06-.24.18-.49.36-.73.55.27 2.35-.17 4.73-1.59 6.7-2.95 4.08-4.31 8.88-6.42 13.39-2.37 5.07-5.54 9.61-8.97 14.02-.43.55-.88 1.09-1.32 1.63 1.35 1.91 2.15 4.21 2.1 6.57-.23 13.61-4.41 27.43-10.25 39.79 1 1.95 1.72 4.07 2.25 6.17.79 3.11.31 6.15-1.17 8.94-.07.14-.16.27-.25.4.82 6.93.76 13.92-1.62 20.59-1.06 2.97-3.03 5.45-5.55 6.95-4.52 13.11-9.18 26.62-7.47 40.66 1.02 8.36 3.84 15.27 8.2 21.39 3.73-.61 8.26-.11 10.83 3.06.3.44.67.8 1.12 1.09 2.06 1.69 3.1 4.14 3.31 6.73.73.04 1.46.17 2.18.4 1.51.36 2.83 1.05 3.95 2.08 1.26.82 2.26 1.9 2.99 3.26 1.19 2.47 2.02 4.8 2.39 7.38 2.02 1.39 4.08 2.72 6.16 3.93l1.44.72c.46.23.89.5 1.29.79 1.72.9 3.46 1.73 5.22 2.45.32.13.64.24.96.37 3.79.53 7.58 1.1 11.36 1.67 6.97 4.26 14.82 6.76 23.35 6.76 3.09 0 6.21-.37 9.29-1.05l2.39.48c12.74 2.66 9.89 24.17-3.09 22.8-15.31-1.61-31.03-2.62-45.78-7.16-.25.03-.49.07-.75.08-7.24.51-14.48.98-21.74 1.01-.81 0-1.57-.08-2.29-.21a11.4 11.4 0 0 1-3.73 1.81c-1.03.14-2.06.28-3.09.41-1.6.06-3.09-.27-4.47-1-1.44-.47-2.68-1.27-3.74-2.4-.04-.04-.07-.08-.11-.12-.88.2-1.77.4-2.66.57-2.4.46-4.89.93-7.35.91-1.32-.01-2.57-.14-3.75-.37-.91.44-1.82.87-2.73 1.32-3.12-.25-6.25-.4-9.39-.38-9.26.06-18.48 1.02-27.72.64-2.47-.61-4.89-1.38-7.29-2.37-6.1-2.52-14.3-2.21-21.79-.42 7.22 36.44 13.08 73.25 22.58 109.15 0 .01.01.03.02.04 2.77 7.57 4.84 15.34 6.81 23.15 2.02.34 3.98.88 5.89 1.62 6.75-1.56 14.06-1.74 19.78.41 7.32 2.75 14.8 4.89 22.39 6.58 3.6-1.02 7.31-1.59 10.97-1.6 25.49-.13 50.8 3.04 76.19 4.93 24.73 1.84 49.64-.26 74.31 2.33 2.95-.75 5.97-1.17 8.95-1.25 7.13-5.21 15.54-7.55 24.54-8.17.97-.05 1.94-.14 2.91-.25 7.26-.98 14.52-1.95 21.79-2.91.51-.54 1.03-1.07 1.58-1.58 3.72-4.01 8.13-6.84 13.23-8.5 4.9-2.57 10.18-3.75 15.83-3.54 8.26.45 9.01.58 13.06 2.32 4.23-.86 8.57-1.55 13.3-2.08 4.76-.53 9.57.46 14.12 2.32 1.28-1.81 2.68-3.52 4.21-5.08 7.09-7.22 15.55-12.84 23.08-19.49-.21-1.64-.34-3.26-.36-4.83-.07-8.18-.05-15.59.95-23.51-7.55-5.4-16.89-9.49-25.87-8.36l-71.35 8.95-35.19 4.41c-3.87.49-7.79 1.09-11.74 1.63-.47-2.53-1.11-5.05-2.03-7.55-1-2.73-2.13-5.33-3.34-7.85 2.68-1.71 5.18-3.67 7.38-5.87 7.8-7.8 13.68-20.61 13.18-31.82 0-.06 0-.12-.01-.18 37.67 2.9 75.38 5.22 113.13 6.91 3.1.14 6.18-.14 9.2-.77-.9-5.76-.6-11.52.95-17.28l1.2-2.85c-7.16-13.02-8.49-27.98-.79-42.56 2.79-5.29 7.35-10.23 12.5-14.19 1.32-1.86 2.75-3.64 4.28-5.3 4.18-4.55 10.22-7.98 16.56-9.99.79-.88 1.61-1.7 2.48-2.42a92 92 0 0 0 5.28-4.72c-.12-.88-.24-1.76-.35-2.63.93-8.35 2.65-16.4 4.11-24.55Z" style="fill:#fff"/><path d="M398.19 439.79a36.16 36.16 0 0 0 2.54-17.81c-1.15-10.68-5.59-20.66-10.11-30.3-7.4-15.78-18.97-32.23-35.13-39.94-12.58-6.01-24.79-2.92-36.53 3.43-8.18 4.43-16.4 8.71-24.91 12.5-.82.37-1.65.73-2.48 1.09-.52.22-.91.4-1.19.52-.31.12-.75.3-1.4.55-2.23.9-4.47 1.78-6.72 2.63-5.06 1.91-10.17 3.69-15.33 5.32-1.96.62-3.92 1.21-5.89 1.79.07 1.12-.45 2.21-1.86 2.82-1.49.9-3.05 1.61-4.67 2.13-.81.46-1.65.86-2.52 1.18-2.04.91-4.24 1.42-6.47 1.42-1.3 0-2.54-.16-3.74-.44l-.2-.03c-.46-.09-.9-.19-1.34-.32-.11-.03-.21-.05-.32-.08-.26-.08-.52-.17-.77-.26-.09-.03-.17-.07-.26-.1a15.96 15.96 0 0 1-2.91-1.45c-.57-.22-1.05-.58-1.44-1.03-.15-.12-.3-.23-.45-.36-.39-.03-.78-.05-1.18-.05-.35 0-.7.03-1.05.06-2.52-2-5.38-3.39-8.45-3.99-.67-1.93-2.32-3.47-4.98-3.47-3.11 0-4.85 2.12-5.23 4.5-.41.16-.82.33-1.24.53.11.24.22.48.31.73.35.11.66.33.92.65.13.89.44 1.74.94 2.47 1.02 3.16 1.97 6.35 2.8 9.57-.73 1.87-1.11 3.87-1.02 5.96.19 4.21 1.77 8.11 4.34 11.11.26 2.1.45 4.22.53 6.33.4 1.52.79 3.04 1.14 4.57-.54.94-.99 1.94-1.32 2.97-.08.1-.15.2-.23.3 1.54 4.86 2.99 9.74 4.31 14.67 1.42 4.27 2.82 8.55 4.04 12.88.23.07.46.15.7.21 1.59.5 3.18.69 4.77.59 0-.08 0-.15.01-.22.32-1.88 1.56-3.7 2.61-5.25.98-1.46 2.04-2.88 3.15-4.26 1.56-4.43 6.25-8 10.21-10.04 1.15-.85 2.39-1.62 3.67-2.1.03-.44.04-.88.03-1.33.43-.37 1.59-1.43 2.09-1.94.63-.42 1.48-1 1.66-1.11.92-.54 1.87-1.03 2.83-1.5.2-.06.99-.36 1.76-.6 3.04-.96 6.18-1.64 9.33-2.1-.19.06 3.67-.37 3.57-.36 1.57-.15 3.15-.28 4.72-.41 3.36-.29 6.73-.58 10.08-1.01 3.86-.49 7.69-1.04 11.46-1.88.43 1.86.94 3.7 1.53 5.53.24.1.48.23.69.4 4.63 3.66 8.64 8.06 10.93 13.56.74 1.79 1.25 3.64 1.61 5.52.54 1.16 1.02 2.35 1.38 3.57.42 1.43.57 2.82.11 4.27-.33 1.03-.8 1.93-1.03 2.92-.04.51-.08 1.02-.13 1.53-.05.49-.22.89-.46 1.2.88 2.56 2.33 4.93 4.14 6.74 4.58 4.58 10.42 5.48 16.54 4.37.07-.01.14-.03.21-.04 4.04 3.09 9.21 4.57 14.18 2.59 2.8-1.11 5.54-2.32 8.26-3.57 3.46.39 7.1-.25 10.6-2 6.65-3.32 13.3-6.65 19.95-9.97 5.1-2.55 8.64-9.06 8.42-14.68 0-.14-.01-.29-.02-.43-.02-.41-.05-.83-.09-1.24Z" class="cls-3"/><path d="m264.88 160.3 2.51-1.57c1.25-.12 2.13.13 3.01 1.05 1.39 1.44 4.79 13.35 6.3 16.66 8.32 18.29 22.95 36.22 41.14 45.24-.41-5.07-13.4-18-10.55-22.01 3.57-5.02 11.17 9.24 12.97 12.11 10.19 16.26 16.27 34.64 11.58 53.81 1.93.5 1.93-.75 2.82-1.66 2.91-2.97 7.25-11.44 8.47-15.5 1.03-3.41.94-12.52 4.2-12.84 4.02-.39 3.65 2.97 3.49 6.05 37.43-4.25 40.19 43.8 11.32 58.71-9.75 5.03-21.24 1.17-26.32 3.66-.63.31-6.07 7.32-7.97 9.01-3.64 3.22-13.95 9.31-16.02 11.95s4.95 4.19 6.6 4.42c6.44.87 12.6-.09 17.9-3.91 3.52-2.53 8.57-12.34 12.56-9.54 4.45 3.13-5.33 10.36-4.05 11.54 9.49-1.12 18.37-5.64 24.4-13.05 1.45-1.79 5.61-9.83 6.18-9.96 8.85-1.99 1.52 11.32-1.6 14.03 31.62-1.82 46.81-39.17 36.36-66.4 6.13-8.24 9.07 8.68 9.49 13.13.73 7.75-.21 14.82-1.87 22.32 17.09-4.69 20.99-26.36 17.29-41.72-4.5-18.7-19.83-31.69-25.75-49.15-4.8-14.16-5.62-30.62-9.62-45.3-17.53-64.33-79.76-111.79-147.33-107.37-3.76.25-15.7 3.18-17.89 2.74-2.8-.56-3.7-4.59-.57-6.21 1.76-.91 10.08-2.14 12.58-2.4 71.75-7.47 139.04 41.38 158.79 109.67 4.41 15.26 5.04 32.35 10.04 46.87 5.51 15.98 19.17 27.79 24.48 44.43 5.65 17.69 3.62 44.71-15.65 53.31-2.61 1.17-8.69 1.99-9.18 2.31-.6.39-5.41 10.01-7.21 12.27-3.91 4.92-9.39 8.47-13.7 12.99 2.03 3.34 2.28 8.09 1.66 11.93-.44 2.75-4.08 7.26-3.77 8.89.17.87 5.91 7.74 7.04 10.92 4.62 13.01-.49 24.22-9.04 33.96 5.64 10.92 11.55 23.12 13.58 35.37 8.37 50.43-48.09 60.06-85.64 51.18-1.25 5.18-2.5 6.48-7.29 8.24-14.04 5.16-40.38 10.23-55.74 13.21-38.45 7.44-89.16.51-129.32-1.98-24.94-1.55-56.55-2.31-80.96-5.63-7.84-1.07-12.49-5.75-14.9-13.06C17.81 436.96 11.59 396.31.1 359.81c-.97-8.64 5.22-15.01 13.38-16.36l163.44 8.01c.09-5.32 2.75-9.11 6-12.97-3.37.34-7.6-2.96-10.51-2.9-2.11.04-5.58 2.51-8.97 2.89-8.59.97-15.24-1.07-22.22-5.76-2.36-1.59-4.49-4.68-6.34-5.65-7.53-3.93-13.67-2.83-21.46-10.51-2.41-2.38-6.35-9.92-7.9-11.08-1.75-1.31-6.12-1.73-8.87-3.12-6.16-3.09-12.78-11.42-15.15-17.81-10.17-27.43 11.66-51.33 13.51-78.29.67-9.71-.75-20.25-.03-29.97 3.94-53.1 46.75-113.82 99.94-126.29.77-3.19-2.24-4.03-3.44-6.04-15.26-25.53 12.05-46.34 36.8-43.74 2.96.31 14.94 2.73 10.74 7.43-1.27 1.42-8.46 3.02-11.61 5.43-7.64 5.86-10.58 17.79-6.69 26.64.9 2.04 7.41 8.64 2.56 10.21-5.1 1.65-9.54-9.88-10.13-13.63-1.98-12.58 3.06-21.82 11.75-30.19-26.04-1.47-45.18 27.37-18.13 43.07.44.78-.26 3.57-.75 4.24-.52.7-14.07 3.11-17.06 4.12-42.51 14.42-77.51 63.1-85.53 106.23-3.14 16.86-1.11 31.14-2.59 47.32-2.58 28.07-34.31 66.27 1.12 86.47-2.72-8.13-3.78-16.85-2.98-25.44.26-2.84 1.57-12.16 5.96-10.04 3.68 1.77.24 9.28 0 12.99-1.05 16.19 8.04 39.03 25.02 43.45-1.6-1.83-4.38-12.99.47-11.95 1.87.4 6.2 11.78 8.3 14.69 5.97 8.29 14.91 12.27 25.22 11.24-8.58-6.18-19.84-11.79-24.48-21.95-7.11-15.55-.04-20.67-.48-33.38-.49-14.2-9.96-30.82-9.18-45.81-5.26-5.51-21.1-10.13-20.79-19.03.12-3.38 11.83-24.39 14.5-27.51 10.59-12.37 28.97 13.41 33.46 10.52 4.2-2.7 11.05-26.17 10.86-31.94l5.11-.58v17.47c0 7.76 8.01 22.76 13.98 27.96 3.15 2.75 11.39 5.23 9.93 9.85l-2.37 1.62c-13.93-4.82-23.02-17.9-26.03-31.94l-6.34 12.33c3.75 4.04 7.87 8.75 4.84 14.6 4.32-.25 10.95.05 7.91 5.93-20.44-5.5-15.83 31.98-38.88 14.05-1.29 1.57 8.33 33.72 8.86 39.54 1.03 11.26-4.57 19.17-.35 31.3 5.52 15.92 30.37 24.92 45.44 28.48 44.06 10.4 102.01 4.32 135.97-27.93 3.77-3.58 5.59-9.53 11.44-9.61 10.07-.14 13.27 3.08 23.83-3.07 19.54-11.38 18.27-47.43-4.8-45.77-8.76.63-8.34 7.54-12.1 13.92-2.5 4.24-14.85 20.05-20.41 16.61-3.51-3.24.33-6.06 1.3-9.74 2.27-8.64 3.16-29.81-2.39-37.14-.85-1.13-16.14-8.46-19.82-11.15-13.29-9.73-24.96-25.06-31.08-40.34-1.56-1.52-1.76.13-1.96 1.5-1.49 10.28-4.69 23.54-12.37 31.08-2.31 2.27-8.93 7.11-10.13 2.35-2.63 3.85-8.14.33-11.52-1.48-7.47-4.01-14.3-11.77-17.16-19.79-1.14-3.19-4.43-16.65 2.21-13.19 1.88.98 3.38 10.07 4.78 13.2 4 8.93 12.4 15.05 21.53 18.06 7.66-3.61 11.92-12.8 14.36-20.54.81-2.56 3.28-11.65 3.28-13.69v-16.97Zm123.89 162.24c-6.47 2.99-14.25.84-20.23 2.17-2.75.62-6.77 4.56-10.01 5.97-9.8 4.27-13.73 1.29-22.05 2.1-1.59.16-3.61 1.88-5.58 2.24-11.34 2.12-17.87-.49-28.11-5.07-15.76 6.44-30.42 19.49-41.93 31.94-2.34 2.53-12.64 16.55-14.46 16.54-10.92-9.6-23.58-20.26-29.65-33.81-10.48.48-32.13-10.16-32.83 6.82 9.74.48 20.94-.55 26.63 8.84 1.78 2.93 2.8 9.12 4.36 10.62 2.13 2.04 29.61 8.34 21.3 13.58l-6.3-.09c1.21 9.25-1.66 22.73.01 31.42.47 2.43 2.71 3.17 3.76 5.26 2.07 4.14-.22 9.88-4.61 11.41l3.82 15.78c4.55-15.13 19.61-25.34 35-26.95-2.33-12.76-3-25.92-3.01-38.92l-6.34 2.84-2.67-3.34c-.02-2.94 8.7-6.37 11.35-7.66 12.75-6.19 28.48-13.12 41.67-18.28 9.95-3.89 44.99-16.62 52.98-8.02 1.21 1.3.85 3.5 1.94 5.05 2.41 3.39 7.65 6.97 10.55 10.43 4.26 5.1 8.09 10.58 11.98 15.97 7.53-6.3 9.57-17.19 6.29-26.22-1.88-5.16-6.35-7.72-8.84-12.24 2.49-6.54 8.95-10.06 5-18.38Zm-115.06 17.9-29.35 4.11c-.92.31-12.54 1.95-18.85 2.78 0 0-.61.02-1.72.21-1.99.34 10.31 10.24 7.96 8.35l14.38 13.44 27.59-28.89ZM11.73 350.67c-3.75.86-5.49 4.98-5.05 8.58l31.47 116.32c2.07 3.54 7.5 4.27 11.36 4.62 26.44 2.41 55.31 4.28 81.96 5.93 28.55 1.76 56.39 3.13 84.95 4.06 6.42.21 18.55 2.6 17.52-6.42-11.13-36.8-15.56-78.69-26.87-114.99-1.63-5.23-3.63-9.36-9.7-10.27-3.97-.6-10.48-.79-14.89-1.1-49.03-3.47-102.95-5.97-151.92-6.99-4.87-.1-14.59-.71-18.82.26ZM305 420.2c.09.15 2.06.79 2.87 1.57 12.61 12.18 16.49 26.56 13.05 43.86.51 1.75 8.21 2.5 10.39 2.66 19.48 1.41 46.14-.46 59.53-16.49 21.12-25.28-11.07-78.04-32.54-95.32-8.04-6.47-9.58-5.5-19.5-3.56-22.4 4.38-45.1 18.35-66.42 26.5l-1.5 6.48 3.07 35.35c5.19 2.08 6.66-1.29 10.67-2.65 4.39-1.48 8.66-.58 12.28-1.7 2.17-.67 5.92-5.9 9.24-7.75s8.57-3.72 12.27-4.71c4.67-1.25 23.68-5.53 25.97-1.09l-.48 2.57c-1.83 2.05-10.85 2.04-14.27 2.72-5.35 1.07-10.69 2.18-15.77 4.22-2.18.88-10.75 4.09-8.87 7.34Zm-81.27-38.64-7.82-3.16 6 28.94 1.98-17.47zm79.13 84.67c12.62 1.59 13.99-4.31 12.98-15.46-1.25-13.79-12.74-32.69-28.97-26.45 13.39 10.35 20.05 24.86 15.99 41.91m-33.06-14.87c3.11 4.27-11.08 12.35-7 17.44s10.94-4.77 14.8-5.39c3.82-.62 11.56 4.59 17.67.73 7.11-4.48-.76-23.23-5.4-28.34-17.01-18.76-54.7-1.53-51.81 23.8l.78 1.21 3.05.45c-3.15-5.34 16.14-25.89 16.04-15.48-.02 1.87-16.54 16.71-8.04 20.99 5.24 2.63 6.85-5.71 9.59-9.42 1.52-2.06 7.79-9.45 10.32-5.98Zm-25.54 19.49c-.48-.28-.63-1.8-2.05-2.39s-3.68-.12-5.3-1.22c.89 7.95 5.29 14.89 3 22.95l70.96-15.98c.71-3.63-2.76-.78-5.34-1.05-2.91-.31-7.22-2.4-9.14-2.49-2.56-.13-6.14 1.8-10.02 1.62-2.93-.13-5.52-1.81-7.17-1.85-3-.08-7.26 6.9-15.85 5.83-3.45-.43-5.34-3.45-6.94-3.61-5.52-.55-4.2 2.76-12.14-1.81Zm34.05-177.33c18.71-1.19 15.1-44.37-2.7-42.68-20.01 1.9-15.87 43.86 2.7 42.68m-95.33-1.41c7.1-2.2 8.49-14.82 7.92-21-.89-9.71-10.42-25.03-20.64-15.14s-4.91 41.62 12.71 36.15Zm55.92 13.94c-3.19-3.98-5.01.88-7.72 2.24-6.25 3.15-8.73-1.23-14.26-2.76-1.83 11.52 19.84 11.5 21.98.52m25.08-95.74c-1.55 5.2 5.84 2.21 8.36 2.34s8.58 3.78 9.52.54c1.49-5.08-10.96-6.01-14.27-5.25-1.19.27-3.27 1.18-3.62 2.37ZM114.43 413.34c-1.19.31-10.44-11.65-17.93-2.96-5.13 5.95-.54 15.02 3.94 19.95 1.95 2.14 12.87 10.54 15.18 10.73 5.23.43 16.76-13.46 17.88-18.68 1.52-7.04-.06-15.89-8.88-15.71-4.35.09-8.02 3.22-10.2 6.67Z"/><g id="RT"><path d="M173.28 205.72c-2.18-3.87-15.35-11.81-19.87-14.73-10.5-6.77-24.26-19.62-34.35-6.8-3.53 4.49-12.93 22.14-14.78 27.55-1.93 5.67-2.21 9.1 2.01 13.58 3.26 3.46 32.06 18.15 41.03 21.43.67.24 1.37.36 2.08.31.39-.02.79-.07 1.19-.16.19-.04 1.22-.56 1.53-.78.88-.62 25.68-32.37 21.16-40.39Z" class="cls-3"/><text style="font-family:&quot;ChillReunion_Round-GBpc-EUC-H&quot;,ChillReunion_Round;font-size:20px;fill:#fff" transform="rotate(29.44 -369.85 360.761)"><tspan x="0" y="0" style="letter-spacing:-.03em">R</tspan><tspan x="11.58" y="0" style="letter-spacing:0">T</tspan></text></g></g></svg>